  0
SECTION
  2
HEADER
  9
$ACADVER
  1
AC1014
  9
$HANDSEED
  5
FFFF
  9
$INSUNITS
 70
     4
  9
$MEASUREMENT
 70
     1
  0
ENDSEC
  0
SECTION
  2
TABLES
  0
TABLE
  2
VPORT
  5
8
330
0
100
AcDbSymbolTable
 70
     4
  0
VPORT
  5
2E
330
8
100
AcDbSymbolTableRecord
100
AcDbViewportTableRecord
  2
*ACTIVE
 70
     0
 10
0.0
 20
0.0
 11
1.0
 21
1.0
 12
210.0
 22
148.5
 13
0.0
 23
0.0
 14
10.0
 24
10.0
 15
10.0
 25
10.0
 16
0.0
 26
0.0
 36
1.0
 17
0.0
 27
0.0
 37
0.0
 40
341.0
 41
1.24
 42
50.0
 43
0.0
 44
0.0
 50
0.0
 51
0.0
 71
     0
 72
   100
 73
     1
 74
     3
 75
     0
 76
     0
 77
     0
 78
     0
  0
ENDTAB
  0
TABLE
  2
LTYPE
  5
5
330
0
100
AcDbSymbolTable
 70
     1
  0
LTYPE
  5
14
330
5
100
AcDbSymbolTableRecord
100
AcDbLinetypeTableRecord
  2
BYBLOCK
 70
     0
  3

 72
    65
 73
     0
 40
0.0
  0
LTYPE
  5
15
330
5
100
AcDbSymbolTableRecord
100
AcDbLinetypeTableRecord
  2
BYLAYER
 70
     0
  3

 72
    65
 73
     0
 40
0.0
  0
LTYPE
  5
16
330
5
100
AcDbSymbolTableRecord
100
AcDbLinetypeTableRecord
  2
CONTINUOUS
 70
     0
  3
Solid line
 72
    65
 73
     0
 40
0.0
  0
ENDTAB
  0
TABLE
  2
LAYER
  5
2
100
AcDbSymbolTable
 70
2
  0
LAYER
  5
50
100
AcDbSymbolTableRecord
100
AcDbLayerTableRecord
  2
0
 70
0
  6
CONTINUOUS
  0
LAYER
  5
51
100
AcDbSymbolTableRecord
100
AcDbLayerTableRecord
  2
Layer_1
 70
0
  6
CONTINUOUS
  0
ENDTAB
  0
TABLE
  2
STYLE
  5
3
330
0
100
AcDbSymbolTable
 70
     1
  0
STYLE
  5
11
330
3
100
AcDbSymbolTableRecord
100
AcDbTextStyleTableRecord
  2
STANDARD
 70
     0
 40
0.0
 41
1.0
 50
0.0
 71
     0
 42
2.5
  3
txt
  4

  0
ENDTAB
  0
TABLE
  2
VIEW
  5
6
330
0
100
AcDbSymbolTable
 70
     0
  0
ENDTAB
  0
TABLE
  2
UCS
  5
7
330
0
100
AcDbSymbolTable
 70
     0
  0
ENDTAB
  0
TABLE
  2
APPID
  5
9
330
0
100
AcDbSymbolTable
 70
     2
  0
APPID
  5
12
330
9
100
AcDbSymbolTableRecord
100
AcDbRegAppTableRecord
  2
ACAD
 70
     0
  0
ENDTAB
  0
TABLE
  2
DIMSTYLE
  5
A
330
0
100
AcDbSymbolTable
 70
     1
  0
DIMSTYLE
105
27
330
A
100
AcDbSymbolTableRecord
100
AcDbDimStyleTableRecord
  2
ISO-25
 70
     0
  3

  4

  5

  6

  7

 40
1.0
 41
2.5
 42
0.625
 43
3.75
 44
1.25
 45
0.0
 46
0.0
 47
0.0
 48
0.0
140
2.5
141
2.5
142
0.0
143
0.03937007874016
144
1.0
145
0.0
146
1.0
147
0.625
 71
     0
 72
     0
 73
     0
 74
     0
 75
     0
 76
     0
 77
     1
 78
     8
170
     0
171
     3
172
     1
173
     0
174
     0
175
     0
176
     0
177
     0
178
     0
270
     2
271
     2
272
     2
273
     2
274
     3
340
11
275
     0
280
     0
281
     0
282
     0
283
     0
284
     8
285
     0
286
     0
287
     3
288
     0
  0
ENDTAB
  0
TABLE
  2
BLOCK_RECORD
  5
1
330
0
100
AcDbSymbolTable
 70
     1
  0
BLOCK_RECORD
  5
1F
330
1
100
AcDbSymbolTableRecord
100
AcDbBlockTableRecord
  2
*MODEL_SPACE
  0
BLOCK_RECORD
  5
1B
330
1
100
AcDbSymbolTableRecord
100
AcDbBlockTableRecord
  2
*PAPER_SPACE
  0
ENDTAB
  0
ENDSEC
  0
SECTION
  2
BLOCKS
  0
BLOCK
  5
20
330
1F
100
AcDbEntity
  8
0
100
AcDbBlockBegin
  2
*MODEL_SPACE
 70
     0
 10
0.0
 20
0.0
 30
0.0
  3
*MODEL_SPACE
  1

  0
ENDBLK
  5
21
330
1F
100
AcDbEntity
  8
0
100
AcDbBlockEnd
  0
BLOCK
  5
1C
330
1B
100
AcDbEntity
 67
     1
  8
0
100
AcDbBlockBegin
  2
*PAPER_SPACE
  1

  0
ENDBLK
  5
1D
330
1B
100
AcDbEntity
 67
     1
  8
0
100
AcDbBlockEnd
  0
ENDSEC
  0
SECTION
  2
ENTITIES
  0
SPLINE
  5
100
100
AcDbEntity
  8
Layer_1
 62
7
100
AcDbSpline
 70
8
 71
3
 72
8
 73
4
 74
0
 40
0
 40
0
 40
0
 40
0
 40
1
 40
1
 40
1
 40
1
 10
1.790616
 20
12.535390
 30
0.0
 10
1.754336
 20
12.406790
 30
0.0
 10
1.712756
 20
12.265070
 30
0.0
 10
1.666593
 20
12.110090
 30
0.0
  0
SPLINE
  5
101
100
AcDbEntity
  8
Layer_1
 62
7
100
AcDbSpline
 70
8
 71
3
 72
8
 73
4
 74
0
 40
0
 40
0
 40
0
 40
0
 40
1
 40
1
 40
1
 40
1
 10
1.666593
 20
12.110090
 30
0.0
 10
1.623723
 20
11.955110
 30
0.0
 10
1.577563
 20
11.790310
 30
0.0
 10
1.528100
 20
11.615550
 30
0.0
  0
SPLINE
  5
102
100
AcDbEntity
  8
Layer_1
 62
7
100
AcDbSpline
 70
8
 71
3
 72
8
 73
4
 74
0
 40
0
 40
0
 40
0
 40
0
 40
1
 40
1
 40
1
 40
1
 10
1.528100
 20
11.615550
 30
0.0
 10
1.481930
 20
11.440790
 30
0.0
 10
1.434420
 20
11.262570
 30
0.0
 10
1.384956
 20
11.081210
 30
0.0
  0
SPLINE
  5
103
100
AcDbEntity
  8
Layer_1
 62
7
100
AcDbSpline
 70
8
 71
3
 72
8
 73
4
 74
0
 40
0
 40
0
 40
0
 40
0
 40
1
 40
1
 40
1
 40
1
 10
1.384956
 20
11.081210
 30
0.0
 10
1.335496
 20
10.899850
 30
0.0
 10
1.284237
 20
10.717060
 30
0.0
 10
1.231477
 20
10.532410
 30
0.0
  0
SPLINE
  5
104
100
AcDbEntity
  8
Layer_1
 62
7
100
AcDbSpline
 70
8
 71
3
 72
8
 73
4
 74
0
 40
0
 40
0
 40
0
 40
0
 40
1
 40
1
 40
1
 40
1
 10
1.231477
 20
10.532410
 30
0.0
 10
1.182017
 20
10.351050
 30
0.0
 10
1.132627
 20
10.174190
 30
0.0
 10
1.083166
 20
10.002720
 30
0.0
  0
SPLINE
  5
105
100
AcDbEntity
  8
Layer_1
 62
7
100
AcDbSpline
 70
8
 71
3
 72
8
 73
4
 74
0
 40
0
 40
0
 40
0
 40
0
 40
1
 40
1
 40
1
 40
1
 10
1.083166
 20
10.002720
 30
0.0
 10
1.037006
 20
9.831260
 30
0.0
 10
0.992186
 20
9.669680
 30
0.0
 10
0.949324
 20
9.518000
 30
0.0
  0
SPLINE
  5
106
100
AcDbEntity
  8
Layer_1
 62
7
100
AcDbSpline
 70
8
 71
3
 72
8
 73
4
 74
0
 40
0
 40
0
 40
0
 40
0
 40
1
 40
1
 40
1
 40
1
 10
0.949324
 20
9.518000
 30
0.0
 10
0.906464
 20
9.366320
 30
0.0
 10
0.867254
 20
9.231560
 30
0.0
 10
0.830985
 20
9.112860
 30
0.0
  0
SPLINE
  5
107
100
AcDbEntity
  8
Layer_1
 62
7
100
AcDbSpline
 70
8
 71
3
 72
8
 73
4
 74
0
 40
0
 40
0
 40
0
 40
0
 40
1
 40
1
 40
1
 40
1
 10
0.830985
 20
9.112860
 30
0.0
 10
0.827685
 20
9.099660
 30
0.0
 10
0.827685
 20
9.088060
 30
0.0
 10
0.830985
 20
9.078260
 30
0.0
  0
SPLINE
  5
108
100
AcDbEntity
  8
Layer_1
 62
7
100
AcDbSpline
 70
8
 71
3
 72
8
 73
4
 74
0
 40
0
 40
0
 40
0
 40
0
 40
1
 40
1
 40
1
 40
1
 10
0.830985
 20
9.078260
 30
0.0
 10
0.834285
 20
9.068260
 30
0.0
 10
0.838885
 20
9.060160
 30
0.0
 10
0.845455
 20
9.053460
 30
0.0
  0
SPLINE
  5
109
100
AcDbEntity
  8
Layer_1
 62
7
100
AcDbSpline
 70
8
 71
3
 72
8
 73
4
 74
0
 40
0
 40
0
 40
0
 40
0
 40
1
 40
1
 40
1
 40
1
 10
0.845455
 20
9.053460
 30
0.0
 10
0.855355
 20
9.046460
 30
0.0
 10
0.866895
 20
9.043460
 30
0.0
 10
0.880075
 20
9.043460
 30
0.0
  0
SPLINE
  5
10a
100
AcDbEntity
  8
Layer_1
 62
7
100
AcDbSpline
 70
8
 71
3
 72
8
 73
4
 74
0
 40
0
 40
0
 40
0
 40
0
 40
1
 40
1
 40
1
 40
1
 10
1.281084
 20
9.043460
 30
0.0
 10
1.353624
 20
9.317150
 30
0.0
 10
1.424229
 20
9.577500
 30
0.0
 10
1.493474
 20
9.824810
 30
0.0
  0
SPLINE
  5
10b
100
AcDbEntity
  8
Layer_1
 62
7
100
AcDbSpline
 70
8
 71
3
 72
8
 73
4
 74
0
 40
0
 40
0
 40
0
 40
0
 40
1
 40
1
 40
1
 40
1
 10
1.493474
 20
9.824810
 30
0.0
 10
1.512224
 20
9.892610
 30
0.0
 10
1.528954
 20
9.951650
 30
0.0
 10
1.547214
 20
10.017560
 30
0.0
  0
LWPOLYLINE
  5
10c
100
AcDbEntity
  8
Layer_1
 62
7
100
AcDbPolyline
 90
3
 70
0
 10
0.880075
 20
9.043460
 30
0.0
 10
1.083163
 20
9.043460
 30
0.0
 10
1.281084
 20
9.043460
 30
0.0
  0
SPLINE
  5
10d
100
AcDbEntity
  8
Layer_1
 62
7
100
AcDbSpline
 70
8
 71
3
 72
8
 73
4
 74
0
 40
0
 40
0
 40
0
 40
0
 40
1
 40
1
 40
1
 40
1
 10
2.814321
 20
10.017560
 30
0.0
 10
2.832411
 20
9.952660
 30
0.0
 10
2.850491
 20
9.890490
 30
0.0
 10
2.868581
 20
9.824810
 30
0.0
  0
SPLINE
  5
10e
100
AcDbEntity
  8
Layer_1
 62
7
100
AcDbSpline
 70
8
 71
3
 72
8
 73
4
 74
0
 40
0
 40
0
 40
0
 40
0
 40
1
 40
1
 40
1
 40
1
 10
2.868581
 20
9.824810
 30
0.0
 10
2.931231
 20
9.600580
 30
0.0
 10
2.992162
 20
9.381290
 30
0.0
 10
3.051515
 20
9.166970
 30
0.0
  0
SPLINE
  5
10f
100
AcDbEntity
  8
Layer_1
 62
7
100
AcDbSpline
 70
8
 71
3
 72
8
 73
4
 74
0
 40
0
 40
0
 40
0
 40
0
 40
1
 40
1
 40
1
 40
1
 10
3.051515
 20
9.166970
 30
0.0
 10
3.061415
 20
9.130670
 30
0.0
 10
3.069725
 20
9.102570
 30
0.0
 10
3.076325
 20
9.082770
 30
0.0
  0
SPLINE
  5
110
100
AcDbEntity
  8
Layer_1
 62
7
100
AcDbSpline
 70
8
 71
3
 72
8
 73
4
 74
0
 40
0
 40
0
 40
0
 40
0
 40
1
 40
1
 40
1
 40
1
 10
3.076325
 20
9.082770
 30
0.0
 10
3.086225
 20
9.066370
 30
0.0
 10
3.096405
 20
9.054770
 30
0.0
 10
3.106295
 20
9.048170
 30
0.0
  0
SPLINE
  5
111
100
AcDbEntity
  8
Layer_1
 62
7
100
AcDbSpline
 70
8
 71
3
 72
8
 73
4
 74
0
 40
0
 40
0
 40
0
 40
0
 40
1
 40
1
 40
1
 40
1
 10
3.106295
 20
9.048170
 30
0.0
 10
3.119485
 20
9.045170
 30
0.0
 10
3.135605
 20
9.043170
 30
0.0
 10
3.155385
 20
9.043170
 30
0.0
  0
LWPOLYLINE
  5
112
100
AcDbEntity
  8
Layer_1
 62
7
100
AcDbPolyline
 90
2
 70
0
 10
1.547214
 20
10.017560
 30
0.0
 10
2.814321
 20
10.017560
 30
0.0
  0
SPLINE
  5
113
100
AcDbEntity
  8
Layer_1
 62
7
100
AcDbSpline
 70
8
 71
3
 72
8
 73
4
 74
0
 40
0
 40
0
 40
0
 40
0
 40
1
 40
1
 40
1
 40
1
 10
3.551226
 20
9.043170
 30
0.0
 10
3.531436
 20
9.125570
 30
0.0
 10
3.510226
 20
9.206400
 30
0.0
 10
3.487146
 20
9.285540
 30
0.0
  0
SPLINE
  5
114
100
AcDbEntity
  8
Layer_1
 62
7
100
AcDbSpline
 70
8
 71
3
 72
8
 73
4
 74
0
 40
0
 40
0
 40
0
 40
0
 40
1
 40
1
 40
1
 40
1
 10
3.487146
 20
9.285540
 30
0.0
 10
3.464066
 20
9.367940
 30
0.0
 10
3.442336
 20
9.450630
 30
0.0
 10
3.422546
 20
9.533070
 30
0.0
  0
SPLINE
  5
115
100
AcDbEntity
  8
Layer_1
 62
7
100
AcDbSpline
 70
8
 71
3
 72
8
 73
4
 74
0
 40
0
 40
0
 40
0
 40
0
 40
1
 40
1
 40
1
 40
1
 10
3.422546
 20
9.533070
 30
0.0
 10
3.346706
 20
9.796860
 30
0.0
 10
3.272363
 20
10.055860
 30
0.0
 10
3.199821
 20
10.309760
 30
0.0
  0
SPLINE
  5
116
100
AcDbEntity
  8
Layer_1
 62
7
100
AcDbSpline
 70
8
 71
3
 72
8
 73
4
 74
0
 40
0
 40
0
 40
0
 40
0
 40
1
 40
1
 40
1
 40
1
 10
3.199821
 20
10.309760
 30
0.0
 10
3.127281
 20
10.563660
 30
0.0
 10
3.054806
 20
10.812480
 30
0.0
 10
2.982263
 20
11.056490
 30
0.0
  0
SPLINE
  5
117
100
AcDbEntity
  8
Layer_1
 62
7
100
AcDbSpline
 70
8
 71
3
 72
8
 73
4
 74
0
 40
0
 40
0
 40
0
 40
0
 40
1
 40
1
 40
1
 40
1
 10
2.982263
 20
11.056490
 30
0.0
 10
2.913013
 20
11.303790
 30
0.0
 10
2.843770
 20
11.546160
 30
0.0
 10
2.774524
 20
11.783570
 30
0.0
  0
SPLINE
  5
118
100
AcDbEntity
  8
Layer_1
 62
7
100
AcDbSpline
 70
8
 71
3
 72
8
 73
4
 74
0
 40
0
 40
0
 40
0
 40
0
 40
1
 40
1
 40
1
 40
1
 10
2.774524
 20
11.783570
 30
0.0
 10
2.705274
 20
12.020990
 30
0.0
 10
2.637899
 20
12.253690
 30
0.0
 10
2.571952
 20
12.481210
 30
0.0
  0
SPLINE
  5
119
100
AcDbEntity
  8
Layer_1
 62
7
100
AcDbSpline
 70
8
 71
3
 72
8
 73
4
 74
0
 40
0
 40
0
 40
0
 40
0
 40
1
 40
1
 40
1
 40
1
 10
2.571952
 20
12.481210
 30
0.0
 10
2.571952
 20
12.494310
 30
0.0
 10
2.568752
 20
12.504010
 30
0.0
 10
2.562152
 20
12.510610
 30
0.0
  0
SPLINE
  5
11a
100
AcDbEntity
  8
Layer_1
 62
7
100
AcDbSpline
 70
8
 71
3
 72
8
 73
4
 74
0
 40
0
 40
0
 40
0
 40
0
 40
1
 40
1
 40
1
 40
1
 10
2.562152
 20
12.510610
 30
0.0
 10
2.558852
 20
12.517610
 30
0.0
 10
2.551892
 20
12.522310
 30
0.0
 10
2.542002
 20
12.525610
 30
0.0
  0
SPLINE
  5
11b
100
AcDbEntity
  8
Layer_1
 62
7
100
AcDbSpline
 70
8
 71
3
 72
8
 73
4
 74
0
 40
0
 40
0
 40
0
 40
0
 40
1
 40
1
 40
1
 40
1
 10
2.542002
 20
12.525610
 30
0.0
 10
2.535402
 20
12.532610
 30
0.0
 10
2.525732
 20
12.535610
 30
0.0
 10
2.512542
 20
12.535610
 30
0.0
  0
LWPOLYLINE
  5
11c
100
AcDbEntity
  8
Layer_1
 62
7
100
AcDbPolyline
 90
3
 70
0
 10
3.155385
 20
9.043170
 30
0.0
 10
3.343487
 20
9.043170
 30
0.0
 10
3.551226
 20
9.043170
 30
0.0
  0
LWPOLYLINE
  5
11d
100
AcDbEntity
  8
Layer_1
 62
7
100
AcDbPolyline
 90
3
 70
0
 10
2.512542
 20
12.535610
 30
0.0
 10
2.171478
 20
12.535610
 30
0.0
 10
1.790616
 20
12.535390
 30
0.0
  0
SPLINE
  5
11e
100
AcDbEntity
  8
Layer_1
 62
7
100
AcDbSpline
 70
8
 71
3
 72
8
 73
4
 74
0
 40
0
 40
0
 40
0
 40
0
 40
1
 40
1
 40
1
 40
1
 10
4.124841
 20
9.073030
 30
0.0
 10
4.128141
 20
9.066030
 30
0.0
 10
4.131441
 20
9.060030
 30
0.0
 10
4.134641
 20
9.053430
 30
0.0
  0
SPLINE
  5
11f
100
AcDbEntity
  8
Layer_1
 62
7
100
AcDbSpline
 70
8
 71
3
 72
8
 73
4
 74
0
 40
0
 40
0
 40
0
 40
0
 40
1
 40
1
 40
1
 40
1
 10
4.134641
 20
9.053430
 30
0.0
 10
4.141241
 20
9.050430
 30
0.0
 10
4.148191
 20
9.047430
 30
0.0
 10
4.154791
 20
9.043430
 30
0.0
  0
LWPOLYLINE
  5
120
100
AcDbEntity
  8
Layer_1
 62
7
100
AcDbPolyline
 90
9
 70
0
 10
4.124841
 20
12.505890
 30
0.0
 10
4.124841
 20
12.352410
 30
0.0
 10
4.124841
 20
12.204100
 30
0.0
 10
4.124841
 20
12.050620
 30
0.0
 10
4.124841
 20
11.452210
 30
0.0
 10
4.124841
 20
10.715300
 30
0.0
 10
4.124841
 20
9.909150
 30
0.0
 10
4.124841
 20
9.097830
 30
0.0
 10
4.124841
 20
9.073030
 30
0.0
  0
SPLINE
  5
121
100
AcDbEntity
  8
Layer_1
 62
7
100
AcDbSpline
 70
8
 71
3
 72
8
 73
4
 74
0
 40
0
 40
0
 40
0
 40
0
 40
1
 40
1
 40
1
 40
1
 10
6.306085
 20
9.399480
 30
0.0
 10
6.306085
 20
9.409480
 30
0.0
 10
6.304685
 20
9.417580
 30
0.0
 10
6.301385
 20
9.424280
 30
0.0
  0
SPLINE
  5
122
100
AcDbEntity
  8
Layer_1
 62
7
100
AcDbSpline
 70
8
 71
3
 72
8
 73
4
 74
0
 40
0
 40
0
 40
0
 40
0
 40
1
 40
1
 40
1
 40
1
 10
6.301385
 20
9.424280
 30
0.0
 10
6.301385
 20
9.431280
 30
0.0
 10
6.297685
 20
9.435380
 30
0.0
 10
6.291055
 20
9.438780
 30
0.0
  0
SPLINE
  5
123
100
AcDbEntity
  8
Layer_1
 62
7
100
AcDbSpline
 70
8
 71
3
 72
8
 73
4
 74
0
 40
0
 40
0
 40
0
 40
0
 40
1
 40
1
 40
1
 40
1
 10
6.291055
 20
9.438780
 30
0.0
 10
6.287755
 20
9.445780
 30
0.0
 10
6.283155
 20
9.450480
 30
0.0
 10
6.276585
 20
9.453780
 30
0.0
  0
SPLINE
  5
124
100
AcDbEntity
  8
Layer_1
 62
7
100
AcDbSpline
 70
8
 71
3
 72
8
 73
4
 74
0
 40
0
 40
0
 40
0
 40
0
 40
1
 40
1
 40
1
 40
1
 10
6.276585
 20
9.453780
 30
0.0
 10
6.269985
 20
9.456780
 30
0.0
 10
6.259805
 20
9.458780
 30
0.0
 10
6.246615
 20
9.458780
 30
0.0
  0
LWPOLYLINE
  5
125
100
AcDbEntity
  8
Layer_1
 62
7
100
AcDbPolyline
 90
6
 70
0
 10
4.154791
 20
9.043430
 30
0.0
 10
4.184251
 20
9.043430
 30
0.0
 10
6.306085
 20
9.043430
 30
0.0
 10
6.306085
 20
9.157120
 30
0.0
 10
6.306085
 20
9.270810
 30
0.0
 10
6.306085
 20
9.399480
 30
0.0
  0
SPLINE
  5
126
100
AcDbEntity
  8
Layer_1
 62
7
100
AcDbSpline
 70
8
 71
3
 72
8
 73
4
 74
0
 40
0
 40
0
 40
0
 40
0
 40
1
 40
1
 40
1
 40
1
 10
4.599687
 20
12.450840
 30
0.0
 10
4.599687
 20
12.460840
 30
0.0
 10
4.596487
 20
12.468940
 30
0.0
 10
4.589887
 20
12.475640
 30
0.0
  0
SPLINE
  5
127
100
AcDbEntity
  8
Layer_1
 62
7
100
AcDbSpline
 70
8
 71
3
 72
8
 73
4
 74
0
 40
0
 40
0
 40
0
 40
0
 40
1
 40
1
 40
1
 40
1
 10
4.589887
 20
12.475640
 30
0.0
 10
4.586587
 20
12.485640
 30
0.0
 10
4.581487
 20
12.491940
 30
0.0
 10
4.574897
 20
12.495240
 30
0.0
  0
SPLINE
  5
128
100
AcDbEntity
  8
Layer_1
 62
7
100
AcDbSpline
 70
8
 71
3
 72
8
 73
4
 74
0
 40
0
 40
0
 40
0
 40
0
 40
1
 40
1
 40
1
 40
1
 10
4.574897
 20
12.495240
 30
0.0
 10
4.568297
 20
12.502240
 30
0.0
 10
4.558627
 20
12.505540
 30
0.0
 10
4.545437
 20
12.505540
 30
0.0
  0
LWPOLYLINE
  5
129
100
AcDbEntity
  8
Layer_1
 62
7
100
AcDbPolyline
 90
6
 70
0
 10
6.246615
 20
9.458780
 30
0.0
 10
4.599687
 20
9.458780
 30
0.0
 10
4.599687
 20
10.200340
 30
0.0
 10
4.599687
 20
10.952230
 30
0.0
 10
4.599687
 20
11.704120
 30
0.0
 10
4.599687
 20
12.450840
 30
0.0
  0
SPLINE
  5
12a
100
AcDbEntity
  8
Layer_1
 62
7
100
AcDbSpline
 70
8
 71
3
 72
8
 73
4
 74
0
 40
0
 40
0
 40
0
 40
0
 40
1
 40
1
 40
1
 40
1
 10
6.775842
 20
12.505890
 30
0.0
 10
6.894548
 20
12.304750
 30
0.0
 10
7.013703
 20
12.103460
 30
0.0
 10
7.132409
 20
11.902310
 30
0.0
  0
SPLINE
  5
12b
100
AcDbEntity
  8
Layer_1
 62
7
100
AcDbSpline
 70
8
 71
3
 72
8
 73
4
 74
0
 40
0
 40
0
 40
0
 40
0
 40
1
 40
1
 40
1
 40
1
 10
7.132409
 20
11.902310
 30
0.0
 10
7.251116
 20
11.704470
 30
0.0
 10
7.369753
 20
11.506390
 30
0.0
 10
7.488460
 20
11.308550
 30
0.0
  0
SPLINE
  5
12c
100
AcDbEntity
  8
Layer_1
 62
7
100
AcDbSpline
 70
8
 71
3
 72
8
 73
4
 74
0
 40
0
 40
0
 40
0
 40
0
 40
1
 40
1
 40
1
 40
1
 10
7.488460
 20
11.308550
 30
0.0
 10
7.592681
 20
11.134840
 30
0.0
 10
7.694772
 20
10.961350
 30
0.0
 10
7.796451
 20
10.787650
 30
0.0
  0
SPLINE
  5
12d
100
AcDbEntity
  8
Layer_1
 62
7
100
AcDbSpline
 70
8
 71
3
 72
8
 73
4
 74
0
 40
0
 40
0
 40
0
 40
0
 40
1
 40
1
 40
1
 40
1
 10
7.796451
 20
10.787650
 30
0.0
 10
7.745681
 20
10.704050
 30
0.0
 10
7.695238
 20
10.621550
 30
0.0
 10
7.641422
 20
10.531850
 30
0.0
  0
SPLINE
  5
12e
100
AcDbEntity
  8
Layer_1
 62
7
100
AcDbSpline
 70
8
 71
3
 72
8
 73
4
 74
0
 40
0
 40
0
 40
0
 40
0
 40
1
 40
1
 40
1
 40
1
 10
7.641422
 20
10.531850
 30
0.0
 10
7.565582
 20
10.403250
 30
0.0
 10
7.488533
 20
10.273070
 30
0.0
 10
7.409395
 20
10.141180
 30
0.0
  0
SPLINE
  5
12f
100
AcDbEntity
  8
Layer_1
 62
7
100
AcDbSpline
 70
8
 71
3
 72
8
 73
4
 74
0
 40
0
 40
0
 40
0
 40
0
 40
1
 40
1
 40
1
 40
1
 10
7.409395
 20
10.141180
 30
0.0
 10
7.330255
 20
10.012580
 30
0.0
 10
7.252692
 20
9.885620
 30
0.0
 10
7.176851
 20
9.760320
 30
0.0
  0
SPLINE
  5
130
100
AcDbEntity
  8
Layer_1
 62
7
100
AcDbSpline
 70
8
 71
3
 72
8
 73
4
 74
0
 40
0
 40
0
 40
0
 40
0
 40
1
 40
1
 40
1
 40
1
 10
7.176851
 20
9.760320
 30
0.0
 10
7.104301
 20
9.638320
 30
0.0
 10
7.035058
 20
9.522900
 30
0.0
 10
6.969112
 20
9.414090
 30
0.0
  0
SPLINE
  5
131
100
AcDbEntity
  8
Layer_1
 62
7
100
AcDbSpline
 70
8
 71
3
 72
8
 73
4
 74
0
 40
0
 40
0
 40
0
 40
0
 40
1
 40
1
 40
1
 40
1
 10
6.969112
 20
9.414090
 30
0.0
 10
6.903162
 20
9.308580
 30
0.0
 10
6.843588
 20
9.216240
 30
0.0
 10
6.790828
 20
9.137100
 30
0.0
  0
SPLINE
  5
132
100
AcDbEntity
  8
Layer_1
 62
7
100
AcDbSpline
 70
8
 71
3
 72
8
 73
4
 74
0
 40
0
 40
0
 40
0
 40
0
 40
1
 40
1
 40
1
 40
1
 10
6.790828
 20
9.137100
 30
0.0
 10
6.780928
 20
9.123900
 30
0.0
 10
6.775838
 20
9.109100
 30
0.0
 10
6.775838
 20
9.092700
 30
0.0
  0
SPLINE
  5
133
100
AcDbEntity
  8
Layer_1
 62
7
100
AcDbSpline
 70
8
 71
3
 72
8
 73
4
 74
0
 40
0
 40
0
 40
0
 40
0
 40
1
 40
1
 40
1
 40
1
 10
6.775838
 20
9.092700
 30
0.0
 10
6.779138
 20
9.079500
 30
0.0
 10
6.786098
 20
9.067900
 30
0.0
 10
6.795988
 20
9.058100
 30
0.0
  0
SPLINE
  5
134
100
AcDbEntity
  8
Layer_1
 62
7
100
AcDbSpline
 70
8
 71
3
 72
8
 73
4
 74
0
 40
0
 40
0
 40
0
 40
0
 40
1
 40
1
 40
1
 40
1
 10
6.795988
 20
9.058100
 30
0.0
 10
6.805888
 20
9.048100
 30
0.0
 10
6.818778
 20
9.043600
 30
0.0
 10
6.835258
 20
9.043600
 30
0.0
  0
LWPOLYLINE
  5
135
100
AcDbEntity
  8
Layer_1
 62
7
100
AcDbPolyline
 90
3
 70
0
 10
4.545437
 20
12.505540
 30
0.0
 10
4.337698
 20
12.505540
 30
0.0
 10
4.124841
 20
12.505890
 30
0.0
  0
SPLINE
  5
136
100
AcDbEntity
  8
Layer_1
 62
7
100
AcDbSpline
 70
8
 71
3
 72
8
 73
4
 74
0
 40
0
 40
0
 40
0
 40
0
 40
1
 40
1
 40
1
 40
1
 10
7.260555
 20
9.043080
 30
0.0
 10
7.366073
 20
9.214550
 30
0.0
 10
7.451957
 20
9.358140
 30
0.0
 10
7.517903
 20
9.473550
 30
0.0
  0
SPLINE
  5
137
100
AcDbEntity
  8
Layer_1
 62
7
100
AcDbSpline
 70
8
 71
3
 72
8
 73
4
 74
0
 40
0
 40
0
 40
0
 40
0
 40
1
 40
1
 40
1
 40
1
 10
7.517903
 20
9.473550
 30
0.0
 10
7.587153
 20
9.588960
 30
0.0
 10
7.644859
 20
9.687740
 30
0.0
 10
7.691019
 20
9.770170
 30
0.0
  0
SPLINE
  5
138
100
AcDbEntity
  8
Layer_1
 62
7
100
AcDbSpline
 70
8
 71
3
 72
8
 73
4
 74
0
 40
0
 40
0
 40
0
 40
0
 40
1
 40
1
 40
1
 40
1
 10
7.691019
 20
9.770170
 30
0.0
 10
7.737179
 20
9.855870
 30
0.0
 10
7.775029
 20
9.933470
 30
0.0
 10
7.804708
 20
10.002710
 30
0.0
  0
SPLINE
  5
139
100
AcDbEntity
  8
Layer_1
 62
7
100
AcDbSpline
 70
8
 71
3
 72
8
 73
4
 74
0
 40
0
 40
0
 40
0
 40
0
 40
1
 40
1
 40
1
 40
1
 10
7.804708
 20
10.002710
 30
0.0
 10
7.837688
 20
10.075210
 30
0.0
 10
7.869088
 20
10.150950
 30
0.0
 10
7.898758
 20
10.230090
 30
0.0
  0
SPLINE
  5
13a
100
AcDbEntity
  8
Layer_1
 62
7
100
AcDbSpline
 70
8
 71
3
 72
8
 73
4
 74
0
 40
0
 40
0
 40
0
 40
0
 40
1
 40
1
 40
1
 40
1
 10
7.898758
 20
10.230090
 30
0.0
 10
7.931728
 20
10.309190
 30
0.0
 10
7.966358
 20
10.403430
 30
0.0
 10
8.002627
 20
10.512240
 30
0.0
  0
LWPOLYLINE
  5
13b
100
AcDbEntity
  8
Layer_1
 62
7
100
AcDbPolyline
 90
4
 70
0
 10
6.835258
 20
9.043600
 30
0.0
 10
6.835258
 20
9.043080
 30
0.0
 10
7.048165
 20
9.043080
 30
0.0
 10
7.260555
 20
9.043080
 30
0.0
  0
SPLINE
  5
13c
100
AcDbEntity
  8
Layer_1
 62
7
100
AcDbSpline
 70
8
 71
3
 72
8
 73
4
 74
0
 40
0
 40
0
 40
0
 40
0
 40
1
 40
1
 40
1
 40
1
 10
8.079107
 20
10.512240
 30
0.0
 10
8.167687
 20
10.366280
 30
0.0
 10
8.257254
 20
10.213420
 30
0.0
 10
8.348858
 20
10.052320
 30
0.0
  0
SPLINE
  5
13d
100
AcDbEntity
  8
Layer_1
 62
7
100
AcDbSpline
 70
8
 71
3
 72
8
 73
4
 74
0
 40
0
 40
0
 40
0
 40
0
 40
1
 40
1
 40
1
 40
1
 10
8.348858
 20
10.052320
 30
0.0
 10
8.444478
 20
9.884160
 30
0.0
 10
8.540038
 20
9.718000
 30
0.0
 10
8.635663
 20
9.553130
 30
0.0
  0
SPLINE
  5
13e
100
AcDbEntity
  8
Layer_1
 62
7
100
AcDbSpline
 70
8
 71
3
 72
8
 73
4
 74
0
 40
0
 40
0
 40
0
 40
0
 40
1
 40
1
 40
1
 40
1
 10
8.635663
 20
9.553130
 30
0.0
 10
8.734583
 20
9.388260
 30
0.0
 10
8.825563
 20
9.236350
 30
0.0
 10
8.907997
 20
9.097860
 30
0.0
  0
SPLINE
  5
13f
100
AcDbEntity
  8
Layer_1
 62
7
100
AcDbSpline
 70
8
 71
3
 72
8
 73
4
 74
0
 40
0
 40
0
 40
0
 40
0
 40
1
 40
1
 40
1
 40
1
 10
8.907997
 20
9.097860
 30
0.0
 10
8.914597
 20
9.087860
 30
0.0
 10
8.922907
 20
9.078260
 30
0.0
 10
8.932807
 20
9.068360
 30
0.0
  0
SPLINE
  5
140
100
AcDbEntity
  8
Layer_1
 62
7
100
AcDbSpline
 70
8
 71
3
 72
8
 73
4
 74
0
 40
0
 40
0
 40
0
 40
0
 40
1
 40
1
 40
1
 40
1
 10
8.932807
 20
9.068360
 30
0.0
 10
8.942707
 20
9.061360
 30
0.0
 10
8.954247
 20
9.054860
 30
0.0
 10
8.967427
 20
9.048160
 30
0.0
  0
SPLINE
  5
141
100
AcDbEntity
  8
Layer_1
 62
7
100
AcDbSpline
 70
8
 71
3
 72
8
 73
4
 74
0
 40
0
 40
0
 40
0
 40
0
 40
1
 40
1
 40
1
 40
1
 10
8.967427
 20
9.048160
 30
0.0
 10
8.980617
 20
9.045160
 30
0.0
 10
8.993517
 20
9.043160
 30
0.0
 10
9.006697
 20
9.043160
 30
0.0
  0
LWPOLYLINE
  5
142
100
AcDbEntity
  8
Layer_1
 62
7
100
AcDbPolyline
 90
2
 70
0
 10
8.002627
 20
10.512240
 30
0.0
 10
8.079107
 20
10.512240
 30
0.0
  0
SPLINE
  5
143
100
AcDbEntity
  8
Layer_1
 62
7
100
AcDbSpline
 70
8
 71
3
 72
8
 73
4
 74
0
 40
0
 40
0
 40
0
 40
0
 40
1
 40
1
 40
1
 40
1
 10
9.471785
 20
9.042640
 30
0.0
 10
9.290428
 20
9.352600
 30
0.0
 10
9.107119
 20
9.660990
 30
0.0
 10
8.922465
 20
9.967650
 30
0.0
  0
SPLINE
  5
144
100
AcDbEntity
  8
Layer_1
 62
7
100
AcDbSpline
 70
8
 71
3
 72
8
 73
4
 74
0
 40
0
 40
0
 40
0
 40
0
 40
1
 40
1
 40
1
 40
1
 10
8.922465
 20
9.967650
 30
0.0
 10
8.751723
 20
10.256350
 30
0.0
 10
8.582821
 20
10.538120
 30
0.0
 10
8.415002
 20
10.815140
 30
0.0
  0
SPLINE
  5
145
100
AcDbEntity
  8
Layer_1
 62
7
100
AcDbSpline
 70
8
 71
3
 72
8
 73
4
 74
0
 40
0
 40
0
 40
0
 40
0
 40
1
 40
1
 40
1
 40
1
 10
8.415002
 20
10.815140
 30
0.0
 10
8.456962
 20
10.883640
 30
0.0
 10
8.497612
 20
10.949830
 30
0.0
 10
8.541609
 20
11.021330
 30
0.0
  0
SPLINE
  5
146
100
AcDbEntity
  8
Layer_1
 62
7
100
AcDbSpline
 70
8
 71
3
 72
8
 73
4
 74
0
 40
0
 40
0
 40
0
 40
0
 40
1
 40
1
 40
1
 40
1
 10
8.541609
 20
11.021330
 30
0.0
 10
8.624049
 20
11.149930
 30
0.0
 10
8.704834
 20
11.278760
 30
0.0
 10
8.783972
 20
11.407360
 30
0.0
  0
SPLINE
  5
147
100
AcDbEntity
  8
Layer_1
 62
7
100
AcDbSpline
 70
8
 71
3
 72
8
 73
4
 74
0
 40
0
 40
0
 40
0
 40
0
 40
1
 40
1
 40
1
 40
1
 10
8.783972
 20
11.407360
 30
0.0
 10
8.863112
 20
11.535960
 30
0.0
 10
8.940675
 20
11.662910
 30
0.0
 10
9.016516
 20
11.788210
 30
0.0
  0
SPLINE
  5
148
100
AcDbEntity
  8
Layer_1
 62
7
100
AcDbSpline
 70
8
 71
3
 72
8
 73
4
 74
0
 40
0
 40
0
 40
0
 40
0
 40
1
 40
1
 40
1
 40
1
 10
9.016516
 20
11.788210
 30
0.0
 10
9.092356
 20
11.913520
 30
0.0
 10
9.163476
 20
12.028930
 30
0.0
 10
9.229423
 20
12.134440
 30
0.0
  0
SPLINE
  5
149
100
AcDbEntity
  8
Layer_1
 62
7
100
AcDbSpline
 70
8
 71
3
 72
8
 73
4
 74
0
 40
0
 40
0
 40
0
 40
0
 40
1
 40
1
 40
1
 40
1
 10
9.229423
 20
12.134440
 30
0.0
 10
9.298663
 20
12.239960
 30
0.0
 10
9.359597
 20
12.332300
 30
0.0
 10
9.412357
 20
12.411430
 30
0.0
  0
SPLINE
  5
14a
100
AcDbEntity
  8
Layer_1
 62
7
100
AcDbSpline
 70
8
 71
3
 72
8
 73
4
 74
0
 40
0
 40
0
 40
0
 40
0
 40
1
 40
1
 40
1
 40
1
 10
9.412357
 20
12.411430
 30
0.0
 10
9.422257
 20
12.427930
 30
0.0
 10
9.425447
 20
12.442630
 30
0.0
 10
9.422157
 20
12.455830
 30
0.0
  0
SPLINE
  5
14b
100
AcDbEntity
  8
Layer_1
 62
7
100
AcDbSpline
 70
8
 71
3
 72
8
 73
4
 74
0
 40
0
 40
0
 40
0
 40
0
 40
1
 40
1
 40
1
 40
1
 10
9.422157
 20
12.455830
 30
0.0
 10
9.422157
 20
12.469030
 30
0.0
 10
9.417057
 20
12.480630
 30
0.0
 10
9.407167
 20
12.490430
 30
0.0
  0
SPLINE
  5
14c
100
AcDbEntity
  8
Layer_1
 62
7
100
AcDbSpline
 70
8
 71
3
 72
8
 73
4
 74
0
 40
0
 40
0
 40
0
 40
0
 40
1
 40
1
 40
1
 40
1
 10
9.407167
 20
12.490430
 30
0.0
 10
9.397267
 20
12.500430
 30
0.0
 10
9.384377
 20
12.504930
 30
0.0
 10
9.367897
 20
12.504930
 30
0.0
  0
LWPOLYLINE
  5
14d
100
AcDbEntity
  8
Layer_1
 62
7
100
AcDbPolyline
 90
4
 70
0
 10
9.006697
 20
9.043160
 30
0.0
 10
9.006697
 20
9.042640
 30
0.0
 10
9.239241
 20
9.042640
 30
0.0
 10
9.471785
 20
9.042640
 30
0.0
  0
SPLINE
  5
14e
100
AcDbEntity
  8
Layer_1
 62
7
100
AcDbSpline
 70
8
 71
3
 72
8
 73
4
 74
0
 40
0
 40
0
 40
0
 40
0
 40
1
 40
1
 40
1
 40
1
 10
8.937432
 20
12.505450
 30
0.0
 10
8.838512
 20
12.343880
 30
0.0
 10
8.756365
 20
12.206740
 30
0.0
 10
8.690419
 20
12.094620
 30
0.0
  0
SPLINE
  5
14f
100
AcDbEntity
  8
Layer_1
 62
7
100
AcDbSpline
 70
8
 71
3
 72
8
 73
4
 74
0
 40
0
 40
0
 40
0
 40
0
 40
1
 40
1
 40
1
 40
1
 10
8.690419
 20
12.094620
 30
0.0
 10
8.624469
 20
11.985810
 30
0.0
 10
8.568120
 20
11.890250
 30
0.0
 10
8.521953
 20
11.807820
 30
0.0
  0
SPLINE
  5
150
100
AcDbEntity
  8
Layer_1
 62
7
100
AcDbSpline
 70
8
 71
3
 72
8
 73
4
 74
0
 40
0
 40
0
 40
0
 40
0
 40
1
 40
1
 40
1
 40
1
 10
8.521953
 20
11.807820
 30
0.0
 10
8.479083
 20
11.725420
 30
0.0
 10
8.441243
 20
11.647820
 30
0.0
 10
8.408265
 20
11.575280
 30
0.0
  0
SPLINE
  5
151
100
AcDbEntity
  8
Layer_1
 62
7
100
AcDbSpline
 70
8
 71
3
 72
8
 73
4
 74
0
 40
0
 40
0
 40
0
 40
0
 40
1
 40
1
 40
1
 40
1
 10
8.408265
 20
11.575280
 30
0.0
 10
8.375295
 20
11.502780
 30
0.0
 10
8.343895
 20
11.427040
 30
0.0
 10
8.314215
 20
11.347900
 30
0.0
  0
SPLINE
  5
152
100
AcDbEntity
  8
Layer_1
 62
7
100
AcDbSpline
 70
8
 71
3
 72
8
 73
4
 74
0
 40
0
 40
0
 40
0
 40
0
 40
1
 40
1
 40
1
 40
1
 10
8.314215
 20
11.347900
 30
0.0
 10
8.287835
 20
11.272100
 30
0.0
 10
8.258305
 20
11.179730
 30
0.0
 10
8.225335
 20
11.070910
 30
0.0
  0
LWPOLYLINE
  5
153
100
AcDbEntity
  8
Layer_1
 62
7
100
AcDbPolyline
 90
4
 70
0
 10
9.367897
 20
12.504930
 30
0.0
 10
9.367897
 20
12.505450
 30
0.0
 10
9.154990
 20
12.505450
 30
0.0
 10
8.937432
 20
12.505450
 30
0.0
  0
SPLINE
  5
154
100
AcDbEntity
  8
Layer_1
 62
7
100
AcDbSpline
 70
8
 71
3
 72
8
 73
4
 74
0
 40
0
 40
0
 40
0
 40
0
 40
1
 40
1
 40
1
 40
1
 10
8.142655
 20
11.070910
 30
0.0
 10
8.059485
 20
11.220790
 30
0.0
 10
7.973107
 20
11.369060
 30
0.0
 10
7.883757
 20
11.515850
 30
0.0
  0
SPLINE
  5
155
100
AcDbEntity
  8
Layer_1
 62
7
100
AcDbSpline
 70
8
 71
3
 72
8
 73
4
 74
0
 40
0
 40
0
 40
0
 40
0
 40
1
 40
1
 40
1
 40
1
 10
7.883757
 20
11.515850
 30
0.0
 10
7.794727
 20
11.670820
 30
0.0
 10
7.704266
 20
11.825960
 30
0.0
 10
7.611938
 20
11.980940
 30
0.0
  0
LWPOLYLINE
  5
156
100
AcDbEntity
  8
Layer_1
 62
7
100
AcDbPolyline
 90
2
 70
0
 10
8.225335
 20
11.070910
 30
0.0
 10
8.142655
 20
11.070910
 30
0.0
  0
SPLINE
  5
157
100
AcDbEntity
  8
Layer_1
 62
7
100
AcDbSpline
 70
8
 71
3
 72
8
 73
4
 74
0
 40
0
 40
0
 40
0
 40
0
 40
1
 40
1
 40
1
 40
1
 10
7.344771
 20
12.445510
 30
0.0
 10
7.338171
 20
12.458610
 30
0.0
 10
7.329861
 20
12.468810
 30
0.0
 10
7.319971
 20
12.475510
 30
0.0
  0
SPLINE
  5
158
100
AcDbEntity
  8
Layer_1
 62
7
100
AcDbSpline
 70
8
 71
3
 72
8
 73
4
 74
0
 40
0
 40
0
 40
0
 40
0
 40
1
 40
1
 40
1
 40
1
 10
7.319971
 20
12.475510
 30
0.0
 10
7.310071
 20
12.482510
 30
0.0
 10
7.298531
 20
12.488510
 30
0.0
 10
7.285351
 20
12.495110
 30
0.0
  0
SPLINE
  5
159
100
AcDbEntity
  8
Layer_1
 62
7
100
AcDbSpline
 70
8
 71
3
 72
8
 73
4
 74
0
 40
0
 40
0
 40
0
 40
0
 40
1
 40
1
 40
1
 40
1
 10
7.285351
 20
12.495110
 30
0.0
 10
7.275451
 20
12.502110
 30
0.0
 10
7.262561
 20
12.505410
 30
0.0
 10
7.246081
 20
12.505410
 30
0.0
  0
LWPOLYLINE
  5
15a
100
AcDbEntity
  8
Layer_1
 62
7
100
AcDbPolyline
 90
2
 70
0
 10
7.611938
 20
11.980940
 30
0.0
 10
7.344771
 20
12.445510
 30
0.0
  0
LWPOLYLINE
  5
15b
100
AcDbEntity
  8
Layer_1
 62
7
100
AcDbPolyline
 90
3
 70
0
 10
7.246081
 20
12.505410
 30
0.0
 10
7.008370
 20
12.505410
 30
0.0
 10
6.775842
 20
12.505890
 30
0.0
  0
SPLINE
  5
15c
100
AcDbEntity
  8
Layer_1
 62
7
100
AcDbSpline
 70
8
 71
3
 72
8
 73
4
 74
0
 40
0
 40
0
 40
0
 40
0
 40
1
 40
1
 40
1
 40
1
 10
2.232967
 20
12.119870
 30
0.0
 10
2.264827
 20
11.997030
 30
0.0
 10
2.298547
 20
11.869230
 30
0.0
 10
2.339420
 20
11.719380
 30
0.0
  0
SPLINE
  5
15d
100
AcDbEntity
  8
Layer_1
 62
7
100
AcDbSpline
 70
8
 71
3
 72
8
 73
4
 74
0
 40
0
 40
0
 40
0
 40
0
 40
1
 40
1
 40
1
 40
1
 10
2.339420
 20
11.719380
 30
0.0
 10
2.388880
 20
11.538020
 30
0.0
 10
2.441497
 20
11.343170
 30
0.0
 10
2.497550
 20
11.135430
 30
0.0
  0
SPLINE
  5
15e
100
AcDbEntity
  8
Layer_1
 62
7
100
AcDbSpline
 70
8
 71
3
 72
8
 73
4
 74
0
 40
0
 40
0
 40
0
 40
0
 40
1
 40
1
 40
1
 40
1
 10
2.497550
 20
11.135430
 30
0.0
 10
2.556900
 20
10.927690
 30
0.0
 10
2.617831
 20
10.713500
 30
0.0
 10
2.680485
 20
10.492580
 30
0.0
  0
SPLINE
  5
15f
100
AcDbEntity
  8
Layer_1
 62
7
100
AcDbSpline
 70
8
 71
3
 72
8
 73
4
 74
0
 40
0
 40
0
 40
0
 40
0
 40
1
 40
1
 40
1
 40
1
 10
2.680485
 20
10.492580
 30
0.0
 10
2.687485
 20
10.468280
 30
0.0
 10
2.694685
 20
10.442580
 30
0.0
 10
2.701675
 20
10.418180
 30
0.0
  0
LWPOLYLINE
  5
160
100
AcDbEntity
  8
Layer_1
 62
7
100
AcDbPolyline
 90
2
 70
0
 10
2.119795
 20
12.119870
 30
0.0
 10
2.232967
 20
12.119870
 30
0.0
  0
SPLINE
  5
161
100
AcDbEntity
  8
Layer_1
 62
7
100
AcDbSpline
 70
8
 71
3
 72
8
 73
4
 74
0
 40
0
 40
0
 40
0
 40
0
 40
1
 40
1
 40
1
 40
1
 10
1.658325
 20
10.418180
 30
0.0
 10
1.668965
 20
10.456380
 30
0.0
 10
1.680935
 20
10.499580
 30
0.0
 10
1.691395
 20
10.537040
 30
0.0
  0
SPLINE
  5
162
100
AcDbEntity
  8
Layer_1
 62
7
100
AcDbSpline
 70
8
 71
3
 72
8
 73
4
 74
0
 40
0
 40
0
 40
0
 40
0
 40
1
 40
1
 40
1
 40
1
 10
1.691395
 20
10.537040
 30
0.0
 10
1.757345
 20
10.764560
 30
0.0
 10
1.816918
 20
10.977400
 30
0.0
 10
1.869678
 20
11.175240
 30
0.0
  0
SPLINE
  5
163
100
AcDbEntity
  8
Layer_1
 62
7
100
AcDbSpline
 70
8
 71
3
 72
8
 73
4
 74
0
 40
0
 40
0
 40
0
 40
0
 40
1
 40
1
 40
1
 40
1
 10
1.869678
 20
11.175240
 30
0.0
 10
1.925738
 20
11.376380
 30
0.0
 10
1.975123
 20
11.561050
 30
0.0
 10
2.017990
 20
11.729210
 30
0.0
  0
SPLINE
  5
164
100
AcDbEntity
  8
Layer_1
 62
7
100
AcDbSpline
 70
8
 71
3
 72
8
 73
4
 74
0
 40
0
 40
0
 40
0
 40
0
 40
1
 40
1
 40
1
 40
1
 10
2.017990
 20
11.729210
 30
0.0
 10
2.055970
 20
11.870290
 30
0.0
 10
2.088510
 20
11.996670
 30
0.0
 10
2.119792
 20
12.119890
 30
0.0
  0
LWPOLYLINE
  5
165
100
AcDbEntity
  8
Layer_1
 62
7
100
AcDbPolyline
 90
4
 70
0
 10
2.701675
 20
10.418180
 30
0.0
 10
2.601420
 20
10.418180
 30
0.0
 10
2.487731
 20
10.418180
 30
0.0
 10
1.658325
 20
10.418180
 30
0.0
  0
LWPOLYLINE
  5
166
100
AcDbEntity
  8
Layer_1
 62
7
100
AcDbPolyline
 90
1
 70
1
 10
2.119792
 20
12.119890
 30
0.0
  0
SPLINE
  5
167
100
AcDbEntity
  8
Layer_1
 62
7
100
AcDbSpline
 70
8
 71
3
 72
8
 73
4
 74
0
 40
0
 40
0
 40
0
 40
0
 40
1
 40
1
 40
1
 40
1
 10
4.763045
 20
6.210710
 30
0.0
 10
4.763045
 20
6.200710
 30
0.0
 10
4.764445
 20
6.191110
 30
0.0
 10
4.767745
 20
6.181210
 30
0.0
  0
SPLINE
  5
168
100
AcDbEntity
  8
Layer_1
 62
7
100
AcDbSpline
 70
8
 71
3
 72
8
 73
4
 74
0
 40
0
 40
0
 40
0
 40
0
 40
1
 40
1
 40
1
 40
1
 10
4.767745
 20
6.181210
 30
0.0
 10
4.774345
 20
6.174210
 30
0.0
 10
4.781295
 20
6.168210
 30
0.0
 10
4.787895
 20
6.161610
 30
0.0
  0
SPLINE
  5
169
100
AcDbEntity
  8
Layer_1
 62
7
100
AcDbSpline
 70
8
 71
3
 72
8
 73
4
 74
0
 40
0
 40
0
 40
0
 40
0
 40
1
 40
1
 40
1
 40
1
 10
4.787895
 20
6.161610
 30
0.0
 10
4.797795
 20
6.158610
 30
0.0
 10
4.807455
 20
6.156610
 30
0.0
 10
4.817355
 20
6.156610
 30
0.0
  0
LWPOLYLINE
  5
16a
100
AcDbEntity
  8
Layer_1
 62
7
100
AcDbPolyline
 90
2
 70
0
 10
4.763045
 20
6.912990
 30
0.0
 10
4.763045
 20
6.210710
 30
0.0
  0
SPLINE
  5
16b
100
AcDbEntity
  8
Layer_1
 62
7
100
AcDbSpline
 70
8
 71
3
 72
8
 73
4
 74
0
 40
0
 40
0
 40
0
 40
0
 40
1
 40
1
 40
1
 40
1
 10
5.534624
 20
6.858890
 30
0.0
 10
5.534624
 20
6.871990
 30
0.0
 10
5.531424
 20
6.881690
 30
0.0
 10
5.524824
 20
6.888390
 30
0.0
  0
SPLINE
  5
16c
100
AcDbEntity
  8
Layer_1
 62
7
100
AcDbSpline
 70
8
 71
3
 72
8
 73
4
 74
0
 40
0
 40
0
 40
0
 40
0
 40
1
 40
1
 40
1
 40
1
 10
5.524824
 20
6.888390
 30
0.0
 10
5.521524
 20
6.895390
 30
0.0
 10
5.516424
 20
6.899990
 30
0.0
 10
5.509834
 20
6.903390
 30
0.0
  0
SPLINE
  5
16d
100
AcDbEntity
  8
Layer_1
 62
7
100
AcDbSpline
 70
8
 71
3
 72
8
 73
4
 74
0
 40
0
 40
0
 40
0
 40
0
 40
1
 40
1
 40
1
 40
1
 10
5.509834
 20
6.903390
 30
0.0
 10
5.503234
 20
6.910390
 30
0.0
 10
5.493564
 20
6.913390
 30
0.0
 10
5.480384
 20
6.913390
 30
0.0
  0
LWPOLYLINE
  5
16e
100
AcDbEntity
  8
Layer_1
 62
7
100
AcDbPolyline
 90
5
 70
0
 10
4.817355
 20
6.156610
 30
0.0
 10
5.049899
 20
6.156610
 30
0.0
 10
5.302080
 20
6.156610
 30
0.0
 10
5.534624
 20
6.156610
 30
0.0
 10
5.534624
 20
6.858890
 30
0.0
  0
SPLINE
  5
16f
100
AcDbEntity
  8
Layer_1
 62
7
100
AcDbSpline
 70
8
 71
3
 72
8
 73
4
 74
0
 40
0
 40
0
 40
0
 40
0
 40
1
 40
1
 40
1
 40
1
 10
2.191109
 20
4.525540
 30
0.0
 10
1.956993
 20
4.525540
 30
0.0
 10
1.754342
 20
4.471040
 30
0.0
 10
1.582877
 20
4.362240
 30
0.0
  0
SPLINE
  5
170
100
AcDbEntity
  8
Layer_1
 62
7
100
AcDbSpline
 70
8
 71
3
 72
8
 73
4
 74
0
 40
0
 40
0
 40
0
 40
0
 40
1
 40
1
 40
1
 40
1
 10
1.582877
 20
4.362240
 30
0.0
 10
1.411412
 20
4.253430
 30
0.0
 10
1.277493
 20
4.096940
 30
0.0
 10
1.181868
 20
3.892500
 30
0.0
  0
SPLINE
  5
171
100
AcDbEntity
  8
Layer_1
 62
7
100
AcDbSpline
 70
8
 71
3
 72
8
 73
4
 74
0
 40
0
 40
0
 40
0
 40
0
 40
1
 40
1
 40
1
 40
1
 10
1.181868
 20
3.892500
 30
0.0
 10
1.086248
 20
3.691360
 30
0.0
 10
1.038724
 20
3.448990
 30
0.0
 10
1.038724
 20
3.165420
 30
0.0
  0
LWPOLYLINE
  5
172
100
AcDbEntity
  8
Layer_1
 62
7
100
AcDbPolyline
 90
4
 70
0
 10
5.480384
 20
6.913390
 30
0.0
 10
5.247770
 20
6.913390
 30
0.0
 10
4.995589
 20
6.913390
 30
0.0
 10
4.763045
 20
6.912990
 30
0.0
  0
SPLINE
  5
173
100
AcDbEntity
  8
Layer_1
 62
7
100
AcDbSpline
 70
8
 71
3
 72
8
 73
4
 74
0
 40
0
 40
0
 40
0
 40
0
 40
1
 40
1
 40
1
 40
1
 10
1.038724
 20
2.225940
 30
0.0
 10
1.038724
 20
2.021500
 30
0.0
 10
1.065024
 20
1.834970
 30
0.0
 10
1.117784
 20
1.666800
 30
0.0
  0
SPLINE
  5
174
100
AcDbEntity
  8
Layer_1
 62
7
100
AcDbSpline
 70
8
 71
3
 72
8
 73
4
 74
0
 40
0
 40
0
 40
0
 40
0
 40
1
 40
1
 40
1
 40
1
 10
1.117784
 20
1.666800
 30
0.0
 10
1.170544
 20
1.501930
 30
0.0
 10
1.246238
 20
1.358330
 30
0.0
 10
1.345161
 20
1.236330
 30
0.0
  0
SPLINE
  5
175
100
AcDbEntity
  8
Layer_1
 62
7
100
AcDbSpline
 70
8
 71
3
 72
8
 73
4
 74
0
 40
0
 40
0
 40
0
 40
0
 40
1
 40
1
 40
1
 40
1
 10
1.345161
 20
1.236330
 30
0.0
 10
1.444081
 20
1.117640
 30
0.0
 10
1.562720
 20
1.027180
 30
0.0
 10
1.701211
 20
0.964520
 30
0.0
  0
SPLINE
  5
176
100
AcDbEntity
  8
Layer_1
 62
7
100
AcDbSpline
 70
8
 71
3
 72
8
 73
4
 74
0
 40
0
 40
0
 40
0
 40
0
 40
1
 40
1
 40
1
 40
1
 10
1.701211
 20
0.964520
 30
0.0
 10
1.842999
 20
0.898620
 30
0.0
 10
2.001355
 20
0.865820
 30
0.0
 10
2.176118
 20
0.865820
 30
0.0
  0
SPLINE
  5
177
100
AcDbEntity
  8
Layer_1
 62
7
100
AcDbSpline
 70
8
 71
3
 72
8
 73
4
 74
0
 40
0
 40
0
 40
0
 40
0
 40
1
 40
1
 40
1
 40
1
 10
2.176118
 20
0.865820
 30
0.0
 10
2.406936
 20
0.865820
 30
0.0
 10
2.608234
 20
0.919820
 30
0.0
 10
2.779698
 20
1.028610
 30
0.0
  0
SPLINE
  5
178
100
AcDbEntity
  8
Layer_1
 62
7
100
AcDbSpline
 70
8
 71
3
 72
8
 73
4
 74
0
 40
0
 40
0
 40
0
 40
0
 40
1
 40
1
 40
1
 40
1
 10
2.779698
 20
1.028610
 30
0.0
 10
2.951164
 20
1.137420
 30
0.0
 10
3.084566
 20
1.292550
 30
0.0
 10
3.180191
 20
1.493690
 30
0.0
  0
SPLINE
  5
179
100
AcDbEntity
  8
Layer_1
 62
7
100
AcDbSpline
 70
8
 71
3
 72
8
 73
4
 74
0
 40
0
 40
0
 40
0
 40
0
 40
1
 40
1
 40
1
 40
1
 10
3.180191
 20
1.493690
 30
0.0
 10
3.275811
 20
1.698130
 30
0.0
 10
3.323851
 20
1.942370
 30
0.0
 10
3.323851
 20
2.225950
 30
0.0
  0
LWPOLYLINE
  5
17a
100
AcDbEntity
  8
Layer_1
 62
7
100
AcDbPolyline
 90
2
 70
0
 10
1.038724
 20
3.165420
 30
0.0
 10
1.038724
 20
2.225940
 30
0.0
  0
SPLINE
  5
17b
100
AcDbEntity
  8
Layer_1
 62
7
100
AcDbSpline
 70
8
 71
3
 72
8
 73
4
 74
0
 40
0
 40
0
 40
0
 40
0
 40
1
 40
1
 40
1
 40
1
 10
3.323851
 20
3.165430
 30
0.0
 10
3.323851
 20
3.439110
 30
0.0
 10
3.277681
 20
3.678250
 30
0.0
 10
3.185358
 20
3.882690
 30
0.0
  0
SPLINE
  5
17c
100
AcDbEntity
  8
Layer_1
 62
7
100
AcDbSpline
 70
8
 71
3
 72
8
 73
4
 74
0
 40
0
 40
0
 40
0
 40
0
 40
1
 40
1
 40
1
 40
1
 10
3.185358
 20
3.882690
 30
0.0
 10
3.093028
 20
4.087130
 30
0.0
 10
2.960981
 20
4.245490
 30
0.0
 10
2.789517
 20
4.357600
 30
0.0
  0
SPLINE
  5
17d
100
AcDbEntity
  8
Layer_1
 62
7
100
AcDbSpline
 70
8
 71
3
 72
8
 73
4
 74
0
 40
0
 40
0
 40
0
 40
0
 40
1
 40
1
 40
1
 40
1
 10
2.789517
 20
4.357600
 30
0.0
 10
2.621349
 20
4.469710
 30
0.0
 10
2.421922
 20
4.525550
 30
0.0
 10
2.191104
 20
4.525550
 30
0.0
  0
LWPOLYLINE
  5
17e
100
AcDbEntity
  8
Layer_1
 62
7
100
AcDbPolyline
 90
2
 70
0
 10
3.323851
 20
2.225950
 30
0.0
 10
3.323851
 20
3.165430
 30
0.0
  0
SPLINE
  5
17f
100
AcDbEntity
  8
Layer_1
 62
7
100
AcDbSpline
 70
8
 71
3
 72
8
 73
4
 74
0
 40
0
 40
0
 40
0
 40
0
 40
1
 40
1
 40
1
 40
1
 10
5.158886
 20
4.525540
 30
0.0
 10
4.924770
 20
4.525540
 30
0.0
 10
4.721603
 20
4.471040
 30
0.0
 10
4.550138
 20
4.362240
 30
0.0
  0
SPLINE
  5
180
100
AcDbEntity
  8
Layer_1
 62
7
100
AcDbSpline
 70
8
 71
3
 72
8
 73
4
 74
0
 40
0
 40
0
 40
0
 40
0
 40
1
 40
1
 40
1
 40
1
 10
4.550138
 20
4.362240
 30
0.0
 10
4.378673
 20
4.253430
 30
0.0
 10
4.245270
 20
4.096940
 30
0.0
 10
4.149646
 20
3.892500
 30
0.0
  0
SPLINE
  5
181
100
AcDbEntity
  8
Layer_1
 62
7
100
AcDbSpline
 70
8
 71
3
 72
8
 73
4
 74
0
 40
0
 40
0
 40
0
 40
0
 40
1
 40
1
 40
1
 40
1
 10
4.149646
 20
3.892500
 30
0.0
 10
4.054026
 20
3.691360
 30
0.0
 10
4.005985
 20
3.448990
 30
0.0
 10
4.005985
 20
3.165420
 30
0.0
  0
LWPOLYLINE
  5
182
100
AcDbEntity
  8
Layer_1
 62
7
100
AcDbPolyline
 90
1
 70
1
 10
2.191104
 20
4.525550
 30
0.0
  0
SPLINE
  5
183
100
AcDbEntity
  8
Layer_1
 62
7
100
AcDbSpline
 70
8
 71
3
 72
8
 73
4
 74
0
 40
0
 40
0
 40
0
 40
0
 40
1
 40
1
 40
1
 40
1
 10
4.005985
 20
2.225940
 30
0.0
 10
4.005985
 20
2.021500
 30
0.0
 10
4.032805
 20
1.834970
 30
0.0
 10
4.085565
 20
1.666800
 30
0.0
  0
SPLINE
  5
184
100
AcDbEntity
  8
Layer_1
 62
7
100
AcDbSpline
 70
8
 71
3
 72
8
 73
4
 74
0
 40
0
 40
0
 40
0
 40
0
 40
1
 40
1
 40
1
 40
1
 10
4.085565
 20
1.666800
 30
0.0
 10
4.138325
 20
1.501930
 30
0.0
 10
4.214019
 20
1.358330
 30
0.0
 10
4.312941
 20
1.236330
 30
0.0
  0
SPLINE
  5
185
100
AcDbEntity
  8
Layer_1
 62
7
100
AcDbSpline
 70
8
 71
3
 72
8
 73
4
 74
0
 40
0
 40
0
 40
0
 40
0
 40
1
 40
1
 40
1
 40
1
 10
4.312941
 20
1.236330
 30
0.0
 10
4.411861
 20
1.117640
 30
0.0
 10
4.530501
 20
1.027180
 30
0.0
 10
4.668992
 20
0.964520
 30
0.0
  0
SPLINE
  5
186
100
AcDbEntity
  8
Layer_1
 62
7
100
AcDbSpline
 70
8
 71
3
 72
8
 73
4
 74
0
 40
0
 40
0
 40
0
 40
0
 40
1
 40
1
 40
1
 40
1
 10
4.668992
 20
0.964520
 30
0.0
 10
4.810780
 20
0.898620
 30
0.0
 10
4.969135
 20
0.865820
 30
0.0
 10
5.143898
 20
0.865820
 30
0.0
  0
SPLINE
  5
187
100
AcDbEntity
  8
Layer_1
 62
7
100
AcDbSpline
 70
8
 71
3
 72
8
 73
4
 74
0
 40
0
 40
0
 40
0
 40
0
 40
1
 40
1
 40
1
 40
1
 10
5.143898
 20
0.865820
 30
0.0
 10
5.374717
 20
0.865820
 30
0.0
 10
5.576014
 20
0.919820
 30
0.0
 10
5.747479
 20
1.028610
 30
0.0
  0
SPLINE
  5
188
100
AcDbEntity
  8
Layer_1
 62
7
100
AcDbSpline
 70
8
 71
3
 72
8
 73
4
 74
0
 40
0
 40
0
 40
0
 40
0
 40
1
 40
1
 40
1
 40
1
 10
5.747479
 20
1.028610
 30
0.0
 10
5.918944
 20
1.137420
 30
0.0
 10
6.052346
 20
1.292550
 30
0.0
 10
6.147971
 20
1.493690
 30
0.0
  0
SPLINE
  5
189
100
AcDbEntity
  8
Layer_1
 62
7
100
AcDbSpline
 70
8
 71
3
 72
8
 73
4
 74
0
 40
0
 40
0
 40
0
 40
0
 40
1
 40
1
 40
1
 40
1
 10
6.147971
 20
1.493690
 30
0.0
 10
6.243591
 20
1.698130
 30
0.0
 10
6.291115
 20
1.942370
 30
0.0
 10
6.291115
 20
2.225950
 30
0.0
  0
LWPOLYLINE
  5
18a
100
AcDbEntity
  8
Layer_1
 62
7
100
AcDbPolyline
 90
2
 70
0
 10
4.005985
 20
3.165420
 30
0.0
 10
4.005985
 20
2.225940
 30
0.0
  0
SPLINE
  5
18b
100
AcDbEntity
  8
Layer_1
 62
7
100
AcDbSpline
 70
8
 71
3
 72
8
 73
4
 74
0
 40
0
 40
0
 40
0
 40
0
 40
1
 40
1
 40
1
 40
1
 10
6.291115
 20
3.165430
 30
0.0
 10
6.291115
 20
3.439110
 30
0.0
 10
6.244945
 20
3.678250
 30
0.0
 10
6.152622
 20
3.882690
 30
0.0
  0
SPLINE
  5
18c
100
AcDbEntity
  8
Layer_1
 62
7
100
AcDbSpline
 70
8
 71
3
 72
8
 73
4
 74
0
 40
0
 40
0
 40
0
 40
0
 40
1
 40
1
 40
1
 40
1
 10
6.152622
 20
3.882690
 30
0.0
 10
6.060292
 20
4.087130
 30
0.0
 10
5.928762
 20
4.245490
 30
0.0
 10
5.757297
 20
4.357600
 30
0.0
  0
SPLINE
  5
18d
100
AcDbEntity
  8
Layer_1
 62
7
100
AcDbSpline
 70
8
 71
3
 72
8
 73
4
 74
0
 40
0
 40
0
 40
0
 40
0
 40
1
 40
1
 40
1
 40
1
 10
5.757297
 20
4.357600
 30
0.0
 10
5.589129
 20
4.469710
 30
0.0
 10
5.389703
 20
4.525550
 30
0.0
 10
5.158884
 20
4.525550
 30
0.0
  0
LWPOLYLINE
  5
18e
100
AcDbEntity
  8
Layer_1
 62
7
100
AcDbPolyline
 90
2
 70
0
 10
6.291115
 20
2.225950
 30
0.0
 10
6.291115
 20
3.165430
 30
0.0
  0
SPLINE
  5
18f
100
AcDbEntity
  8
Layer_1
 62
7
100
AcDbSpline
 70
8
 71
3
 72
8
 73
4
 74
0
 40
0
 40
0
 40
0
 40
0
 40
1
 40
1
 40
1
 40
1
 10
8.126147
 20
4.525540
 30
0.0
 10
7.892031
 20
4.525540
 30
0.0
 10
7.689380
 20
4.471040
 30
0.0
 10
7.517915
 20
4.362240
 30
0.0
  0
SPLINE
  5
190
100
AcDbEntity
  8
Layer_1
 62
7
100
AcDbSpline
 70
8
 71
3
 72
8
 73
4
 74
0
 40
0
 40
0
 40
0
 40
0
 40
1
 40
1
 40
1
 40
1
 10
7.517915
 20
4.362240
 30
0.0
 10
7.346450
 20
4.253430
 30
0.0
 10
7.213048
 20
4.096940
 30
0.0
 10
7.117423
 20
3.892500
 30
0.0
  0
SPLINE
  5
191
100
AcDbEntity
  8
Layer_1
 62
7
100
AcDbSpline
 70
8
 71
3
 72
8
 73
4
 74
0
 40
0
 40
0
 40
0
 40
0
 40
1
 40
1
 40
1
 40
1
 10
7.117423
 20
3.892500
 30
0.0
 10
7.021793
 20
3.691360
 30
0.0
 10
6.973763
 20
3.448990
 30
0.0
 10
6.973763
 20
3.165420
 30
0.0
  0
LWPOLYLINE
  5
192
100
AcDbEntity
  8
Layer_1
 62
7
100
AcDbPolyline
 90
1
 70
1
 10
5.158884
 20
4.525550
 30
0.0
  0
SPLINE
  5
193
100
AcDbEntity
  8
Layer_1
 62
7
100
AcDbSpline
 70
8
 71
3
 72
8
 73
4
 74
0
 40
0
 40
0
 40
0
 40
0
 40
1
 40
1
 40
1
 40
1
 10
6.973763
 20
2.225940
 30
0.0
 10
6.973763
 20
2.021500
 30
0.0
 10
7.000063
 20
1.834970
 30
0.0
 10
7.052823
 20
1.666800
 30
0.0
  0
SPLINE
  5
194
100
AcDbEntity
  8
Layer_1
 62
7
100
AcDbSpline
 70
8
 71
3
 72
8
 73
4
 74
0
 40
0
 40
0
 40
0
 40
0
 40
1
 40
1
 40
1
 40
1
 10
7.052823
 20
1.666800
 30
0.0
 10
7.105583
 20
1.501930
 30
0.0
 10
7.181795
 20
1.358330
 30
0.0
 10
7.280717
 20
1.236330
 30
0.0
  0
SPLINE
  5
195
100
AcDbEntity
  8
Layer_1
 62
7
100
AcDbSpline
 70
8
 71
3
 72
8
 73
4
 74
0
 40
0
 40
0
 40
0
 40
0
 40
1
 40
1
 40
1
 40
1
 10
7.280717
 20
1.236330
 30
0.0
 10
7.379637
 20
1.117640
 30
0.0
 10
7.498276
 20
1.027180
 30
0.0
 10
7.636767
 20
0.964520
 30
0.0
  0
SPLINE
  5
196
100
AcDbEntity
  8
Layer_1
 62
7
100
AcDbSpline
 70
8
 71
3
 72
8
 73
4
 74
0
 40
0
 40
0
 40
0
 40
0
 40
1
 40
1
 40
1
 40
1
 10
7.636767
 20
0.964520
 30
0.0
 10
7.778556
 20
0.898620
 30
0.0
 10
7.936911
 20
0.865820
 30
0.0
 10
8.111674
 20
0.865820
 30
0.0
  0
SPLINE
  5
197
100
AcDbEntity
  8
Layer_1
 62
7
100
AcDbSpline
 70
8
 71
3
 72
8
 73
4
 74
0
 40
0
 40
0
 40
0
 40
0
 40
1
 40
1
 40
1
 40
1
 10
8.111674
 20
0.865820
 30
0.0
 10
8.342492
 20
0.865820
 30
0.0
 10
8.543272
 20
0.919820
 30
0.0
 10
8.714738
 20
1.028610
 30
0.0
  0
SPLINE
  5
198
100
AcDbEntity
  8
Layer_1
 62
7
100
AcDbSpline
 70
8
 71
3
 72
8
 73
4
 74
0
 40
0
 40
0
 40
0
 40
0
 40
1
 40
1
 40
1
 40
1
 10
8.714738
 20
1.028610
 30
0.0
 10
8.886203
 20
1.137420
 30
0.0
 10
9.020122
 20
1.292550
 30
0.0
 10
9.115747
 20
1.493690
 30
0.0
  0
SPLINE
  5
199
100
AcDbEntity
  8
Layer_1
 62
7
100
AcDbSpline
 70
8
 71
3
 72
8
 73
4
 74
0
 40
0
 40
0
 40
0
 40
0
 40
1
 40
1
 40
1
 40
1
 10
9.115747
 20
1.493690
 30
0.0
 10
9.211367
 20
1.698130
 30
0.0
 10
9.258890
 20
1.942370
 30
0.0
 10
9.258890
 20
2.225950
 30
0.0
  0
LWPOLYLINE
  5
19a
100
AcDbEntity
  8
Layer_1
 62
7
100
AcDbPolyline
 90
2
 70
0
 10
6.973763
 20
3.165420
 30
0.0
 10
6.973763
 20
2.225940
 30
0.0
  0
SPLINE
  5
19b
100
AcDbEntity
  8
Layer_1
 62
7
100
AcDbSpline
 70
8
 71
3
 72
8
 73
4
 74
0
 40
0
 40
0
 40
0
 40
0
 40
1
 40
1
 40
1
 40
1
 10
9.258890
 20
3.165430
 30
0.0
 10
9.258890
 20
3.439110
 30
0.0
 10
9.212720
 20
3.678250
 30
0.0
 10
9.120398
 20
3.882690
 30
0.0
  0
SPLINE
  5
19c
100
AcDbEntity
  8
Layer_1
 62
7
100
AcDbSpline
 70
8
 71
3
 72
8
 73
4
 74
0
 40
0
 40
0
 40
0
 40
0
 40
1
 40
1
 40
1
 40
1
 10
9.120398
 20
3.882690
 30
0.0
 10
9.028068
 20
4.087130
 30
0.0
 10
8.896021
 20
4.245490
 30
0.0
 10
8.724556
 20
4.357600
 30
0.0
  0
SPLINE
  5
19d
100
AcDbEntity
  8
Layer_1
 62
7
100
AcDbSpline
 70
8
 71
3
 72
8
 73
4
 74
0
 40
0
 40
0
 40
0
 40
0
 40
1
 40
1
 40
1
 40
1
 10
8.724556
 20
4.357600
 30
0.0
 10
8.556389
 20
4.469710
 30
0.0
 10
8.356962
 20
4.525550
 30
0.0
 10
8.126143
 20
4.525550
 30
0.0
  0
LWPOLYLINE
  5
19e
100
AcDbEntity
  8
Layer_1
 62
7
100
AcDbPolyline
 90
2
 70
0
 10
9.258890
 20
2.225950
 30
0.0
 10
9.258890
 20
3.165430
 30
0.0
  0
SPLINE
  5
19f
100
AcDbEntity
  8
Layer_1
 62
7
100
AcDbSpline
 70
8
 71
3
 72
8
 73
4
 74
0
 40
0
 40
0
 40
0
 40
0
 40
1
 40
1
 40
1
 40
1
 10
2.181290
 20
4.100240
 30
0.0
 10
2.276920
 20
4.100240
 30
0.0
 10
2.364152
 20
4.085440
 30
0.0
 10
2.443290
 20
4.055840
 30
0.0
  0
SPLINE
  5
1a0
100
AcDbEntity
  8
Layer_1
 62
7
100
AcDbSpline
 70
8
 71
3
 72
8
 73
4
 74
0
 40
0
 40
0
 40
0
 40
0
 40
1
 40
1
 40
1
 40
1
 10
2.443290
 20
4.055840
 30
0.0
 10
2.525730
 20
4.029440
 30
0.0
 10
2.594976
 20
3.986540
 30
0.0
 10
2.651029
 20
3.927170
 30
0.0
  0
SPLINE
  5
1a1
100
AcDbEntity
  8
Layer_1
 62
7
100
AcDbSpline
 70
8
 71
3
 72
8
 73
4
 74
0
 40
0
 40
0
 40
0
 40
0
 40
1
 40
1
 40
1
 40
1
 10
2.651029
 20
3.927170
 30
0.0
 10
2.697189
 20
3.877670
 30
0.0
 10
2.736909
 20
3.816780
 30
0.0
 10
2.769885
 20
3.744230
 30
0.0
  0
SPLINE
  5
1a2
100
AcDbEntity
  8
Layer_1
 62
7
100
AcDbSpline
 70
8
 71
3
 72
8
 73
4
 74
0
 40
0
 40
0
 40
0
 40
0
 40
1
 40
1
 40
1
 40
1
 10
2.769885
 20
3.744230
 30
0.0
 10
2.786095
 20
3.710230
 30
0.0
 10
2.800035
 20
3.673030
 30
0.0
 10
2.812255
 20
3.632610
 30
0.0
  0
SPLINE
  5
1a3
100
AcDbEntity
  8
Layer_1
 62
7
100
AcDbSpline
 70
8
 71
3
 72
8
 73
4
 74
0
 40
0
 40
0
 40
0
 40
0
 40
1
 40
1
 40
1
 40
1
 10
2.812255
 20
3.632610
 30
0.0
 10
2.688451
 20
3.495060
 30
0.0
 10
2.564968
 20
3.357270
 30
0.0
 10
2.443286
 20
3.219720
 30
0.0
  0
SPLINE
  5
1a4
100
AcDbEntity
  8
Layer_1
 62
7
100
AcDbSpline
 70
8
 71
3
 72
8
 73
4
 74
0
 40
0
 40
0
 40
0
 40
0
 40
1
 40
1
 40
1
 40
1
 10
2.443286
 20
3.219720
 30
0.0
 10
2.291605
 20
3.048250
 30
0.0
 10
2.138343
 20
2.875130
 30
0.0
 10
1.983365
 20
2.700370
 30
0.0
  0
SPLINE
  5
1a5
100
AcDbEntity
  8
Layer_1
 62
7
100
AcDbSpline
 70
8
 71
3
 72
8
 73
4
 74
0
 40
0
 40
0
 40
0
 40
0
 40
1
 40
1
 40
1
 40
1
 10
1.983365
 20
2.700370
 30
0.0
 10
1.897635
 20
2.608070
 30
0.0
 10
1.826512
 20
2.527760
 30
0.0
 10
1.770459
 20
2.458520
 30
0.0
  0
SPLINE
  5
1a6
100
AcDbEntity
  8
Layer_1
 62
7
100
AcDbSpline
 70
8
 71
3
 72
8
 73
4
 74
0
 40
0
 40
0
 40
0
 40
0
 40
1
 40
1
 40
1
 40
1
 10
1.770459
 20
2.458520
 30
0.0
 10
1.717699
 20
2.389220
 30
0.0
 10
1.673409
 20
2.321370
 30
0.0
 10
1.637133
 20
2.255430
 30
0.0
  0
SPLINE
  5
1a7
100
AcDbEntity
  8
Layer_1
 62
7
100
AcDbSpline
 70
8
 71
3
 72
8
 73
4
 74
0
 40
0
 40
0
 40
0
 40
0
 40
1
 40
1
 40
1
 40
1
 10
1.637133
 20
2.255430
 30
0.0
 10
1.619473
 20
2.224930
 30
0.0
 10
1.602083
 20
2.191930
 30
0.0
 10
1.584423
 20
2.156730
 30
0.0
  0
LWPOLYLINE
  5
1a8
100
AcDbEntity
  8
Layer_1
 62
7
100
AcDbPolyline
 90
1
 70
1
 10
8.126143
 20
4.525550
 30
0.0
  0
SPLINE
  5
1a9
100
AcDbEntity
  8
Layer_1
 62
7
100
AcDbSpline
 70
8
 71
3
 72
8
 73
4
 74
0
 40
0
 40
0
 40
0
 40
0
 40
1
 40
1
 40
1
 40
1
 10
1.490893
 20
2.156730
 30
0.0
 10
1.490194
 20
2.179730
 30
0.0
 10
1.488793
 20
2.202330
 30
0.0
 10
1.488793
 20
2.226030
 30
0.0
  0
LWPOLYLINE
  5
1aa
100
AcDbEntity
  8
Layer_1
 62
7
100
AcDbPolyline
 90
2
 70
0
 10
1.584423
 20
2.156730
 30
0.0
 10
1.490893
 20
2.156730
 30
0.0
  0
SPLINE
  5
1ab
100
AcDbEntity
  8
Layer_1
 62
7
100
AcDbSpline
 70
8
 71
3
 72
8
 73
4
 74
0
 40
0
 40
0
 40
0
 40
0
 40
1
 40
1
 40
1
 40
1
 10
1.488793
 20
3.165510
 30
0.0
 10
1.488793
 20
3.386430
 30
0.0
 10
1.516453
 20
3.564650
 30
0.0
 10
1.572513
 20
3.699840
 30
0.0
  0
SPLINE
  5
1ac
100
AcDbEntity
  8
Layer_1
 62
7
100
AcDbSpline
 70
8
 71
3
 72
8
 73
4
 74
0
 40
0
 40
0
 40
0
 40
0
 40
1
 40
1
 40
1
 40
1
 10
1.572513
 20
3.699840
 30
0.0
 10
1.628573
 20
3.838310
 30
0.0
 10
1.708005
 20
3.938960
 30
0.0
 10
1.810224
 20
4.001630
 30
0.0
  0
SPLINE
  5
1ad
100
AcDbEntity
  8
Layer_1
 62
7
100
AcDbSpline
 70
8
 71
3
 72
8
 73
4
 74
0
 40
0
 40
0
 40
0
 40
0
 40
1
 40
1
 40
1
 40
1
 10
1.810224
 20
4.001630
 30
0.0
 10
1.915741
 20
4.067530
 30
0.0
 10
2.039473
 20
4.100330
 30
0.0
 10
2.181261
 20
4.100330
 30
0.0
  0
LWPOLYLINE
  5
1ae
100
AcDbEntity
  8
Layer_1
 62
7
100
AcDbPolyline
 90
2
 70
0
 10
1.488793
 20
2.226030
 30
0.0
 10
1.488793
 20
3.165510
 30
0.0
  0
SPLINE
  5
1af
100
AcDbEntity
  8
Layer_1
 62
7
100
AcDbSpline
 70
8
 71
3
 72
8
 73
4
 74
0
 40
0
 40
0
 40
0
 40
0
 40
1
 40
1
 40
1
 40
1
 10
5.148551
 20
4.100240
 30
0.0
 10
5.244171
 20
4.100240
 30
0.0
 10
5.331929
 20
4.085440
 30
0.0
 10
5.411067
 20
4.055840
 30
0.0
  0
SPLINE
  5
1b0
100
AcDbEntity
  8
Layer_1
 62
7
100
AcDbSpline
 70
8
 71
3
 72
8
 73
4
 74
0
 40
0
 40
0
 40
0
 40
0
 40
1
 40
1
 40
1
 40
1
 10
5.411067
 20
4.055840
 30
0.0
 10
5.493507
 20
4.029440
 30
0.0
 10
5.562753
 20
3.986540
 30
0.0
 10
5.618806
 20
3.927170
 30
0.0
  0
SPLINE
  5
1b1
100
AcDbEntity
  8
Layer_1
 62
7
100
AcDbSpline
 70
8
 71
3
 72
8
 73
4
 74
0
 40
0
 40
0
 40
0
 40
0
 40
1
 40
1
 40
1
 40
1
 10
5.618806
 20
3.927170
 30
0.0
 10
5.664976
 20
3.877670
 30
0.0
 10
5.704176
 20
3.816780
 30
0.0
 10
5.737146
 20
3.744230
 30
0.0
  0
SPLINE
  5
1b2
100
AcDbEntity
  8
Layer_1
 62
7
100
AcDbSpline
 70
8
 71
3
 72
8
 73
4
 74
0
 40
0
 40
0
 40
0
 40
0
 40
1
 40
1
 40
1
 40
1
 10
5.737146
 20
3.744230
 30
0.0
 10
5.753356
 20
3.710230
 30
0.0
 10
5.767816
 20
3.673030
 30
0.0
 10
5.780036
 20
3.632610
 30
0.0
  0
SPLINE
  5
1b3
100
AcDbEntity
  8
Layer_1
 62
7
100
AcDbSpline
 70
8
 71
3
 72
8
 73
4
 74
0
 40
0
 40
0
 40
0
 40
0
 40
1
 40
1
 40
1
 40
1
 10
5.780036
 20
3.632610
 30
0.0
 10
5.656232
 20
3.495060
 30
0.0
 10
5.532748
 20
3.357270
 30
0.0
 10
5.411066
 20
3.219720
 30
0.0
  0
SPLINE
  5
1b4
100
AcDbEntity
  8
Layer_1
 62
7
100
AcDbSpline
 70
8
 71
3
 72
8
 73
4
 74
0
 40
0
 40
0
 40
0
 40
0
 40
1
 40
1
 40
1
 40
1
 10
5.411066
 20
3.219720
 30
0.0
 10
5.259386
 20
3.048250
 30
0.0
 10
5.106124
 20
2.875130
 30
0.0
 10
4.951146
 20
2.700370
 30
0.0
  0
SPLINE
  5
1b5
100
AcDbEntity
  8
Layer_1
 62
7
100
AcDbSpline
 70
8
 71
3
 72
8
 73
4
 74
0
 40
0
 40
0
 40
0
 40
0
 40
1
 40
1
 40
1
 40
1
 10
4.951146
 20
2.700370
 30
0.0
 10
4.865416
 20
2.608070
 30
0.0
 10
4.794292
 20
2.527760
 30
0.0
 10
4.738239
 20
2.458520
 30
0.0
  0
SPLINE
  5
1b6
100
AcDbEntity
  8
Layer_1
 62
7
100
AcDbSpline
 70
8
 71
3
 72
8
 73
4
 74
0
 40
0
 40
0
 40
0
 40
0
 40
1
 40
1
 40
1
 40
1
 10
4.738239
 20
2.458520
 30
0.0
 10
4.685479
 20
2.389220
 30
0.0
 10
4.641189
 20
2.321370
 30
0.0
 10
4.604914
 20
2.255430
 30
0.0
  0
SPLINE
  5
1b7
100
AcDbEntity
  8
Layer_1
 62
7
100
AcDbSpline
 70
8
 71
3
 72
8
 73
4
 74
0
 40
0
 40
0
 40
0
 40
0
 40
1
 40
1
 40
1
 40
1
 10
4.604914
 20
2.255430
 30
0.0
 10
4.587254
 20
2.224930
 30
0.0
 10
4.569354
 20
2.191930
 30
0.0
 10
4.551684
 20
2.156730
 30
0.0
  0
LWPOLYLINE
  5
1b8
100
AcDbEntity
  8
Layer_1
 62
7
100
AcDbPolyline
 90
1
 70
1
 10
2.181261
 20
4.100330
 30
0.0
  0
SPLINE
  5
1b9
100
AcDbEntity
  8
Layer_1
 62
7
100
AcDbSpline
 70
8
 71
3
 72
8
 73
4
 74
0
 40
0
 40
0
 40
0
 40
0
 40
1
 40
1
 40
1
 40
1
 10
4.458154
 20
2.156730
 30
0.0
 10
4.457455
 20
2.179730
 30
0.0
 10
4.456054
 20
2.202330
 30
0.0
 10
4.456054
 20
2.226030
 30
0.0
  0
LWPOLYLINE
  5
1ba
100
AcDbEntity
  8
Layer_1
 62
7
100
AcDbPolyline
 90
2
 70
0
 10
4.551684
 20
2.156730
 30
0.0
 10
4.458154
 20
2.156730
 30
0.0
  0
SPLINE
  5
1bb
100
AcDbEntity
  8
Layer_1
 62
7
100
AcDbSpline
 70
8
 71
3
 72
8
 73
4
 74
0
 40
0
 40
0
 40
0
 40
0
 40
1
 40
1
 40
1
 40
1
 10
4.456054
 20
3.165510
 30
0.0
 10
4.456054
 20
3.386430
 30
0.0
 10
4.484234
 20
3.564650
 30
0.0
 10
4.540284
 20
3.699840
 30
0.0
  0
SPLINE
  5
1bc
100
AcDbEntity
  8
Layer_1
 62
7
100
AcDbSpline
 70
8
 71
3
 72
8
 73
4
 74
0
 40
0
 40
0
 40
0
 40
0
 40
1
 40
1
 40
1
 40
1
 10
4.540284
 20
3.699840
 30
0.0
 10
4.596344
 20
3.838310
 30
0.0
 10
4.675776
 20
3.938960
 30
0.0
 10
4.777996
 20
4.001630
 30
0.0
  0
SPLINE
  5
1bd
100
AcDbEntity
  8
Layer_1
 62
7
100
AcDbSpline
 70
8
 71
3
 72
8
 73
4
 74
0
 40
0
 40
0
 40
0
 40
0
 40
1
 40
1
 40
1
 40
1
 10
4.777996
 20
4.001630
 30
0.0
 10
4.883513
 20
4.067530
 30
0.0
 10
5.006727
 20
4.100330
 30
0.0
 10
5.148516
 20
4.100330
 30
0.0
  0
LWPOLYLINE
  5
1be
100
AcDbEntity
  8
Layer_1
 62
7
100
AcDbPolyline
 90
2
 70
0
 10
4.456054
 20
2.226030
 30
0.0
 10
4.456054
 20
3.165510
 30
0.0
  0
SPLINE
  5
1bf
100
AcDbEntity
  8
Layer_1
 62
7
100
AcDbSpline
 70
8
 71
3
 72
8
 73
4
 74
0
 40
0
 40
0
 40
0
 40
0
 40
1
 40
1
 40
1
 40
1
 10
8.116328
 20
4.100240
 30
0.0
 10
8.211948
 20
4.100240
 30
0.0
 10
8.299190
 20
4.085440
 30
0.0
 10
8.378328
 20
4.055840
 30
0.0
  0
SPLINE
  5
1c0
100
AcDbEntity
  8
Layer_1
 62
7
100
AcDbSpline
 70
8
 71
3
 72
8
 73
4
 74
0
 40
0
 40
0
 40
0
 40
0
 40
1
 40
1
 40
1
 40
1
 10
8.378328
 20
4.055840
 30
0.0
 10
8.460768
 20
4.029440
 30
0.0
 10
8.530014
 20
3.986540
 30
0.0
 10
8.586067
 20
3.927170
 30
0.0
  0
SPLINE
  5
1c1
100
AcDbEntity
  8
Layer_1
 62
7
100
AcDbSpline
 70
8
 71
3
 72
8
 73
4
 74
0
 40
0
 40
0
 40
0
 40
0
 40
1
 40
1
 40
1
 40
1
 10
8.586067
 20
3.927170
 30
0.0
 10
8.632237
 20
3.877670
 30
0.0
 10
8.671947
 20
3.816780
 30
0.0
 10
8.704923
 20
3.744230
 30
0.0
  0
SPLINE
  5
1c2
100
AcDbEntity
  8
Layer_1
 62
7
100
AcDbSpline
 70
8
 71
3
 72
8
 73
4
 74
0
 40
0
 40
0
 40
0
 40
0
 40
1
 40
1
 40
1
 40
1
 10
8.704923
 20
3.744230
 30
0.0
 10
8.721133
 20
3.710230
 30
0.0
 10
8.735593
 20
3.673030
 30
0.0
 10
8.747813
 20
3.632610
 30
0.0
  0
SPLINE
  5
1c3
100
AcDbEntity
  8
Layer_1
 62
7
100
AcDbSpline
 70
8
 71
3
 72
8
 73
4
 74
0
 40
0
 40
0
 40
0
 40
0
 40
1
 40
1
 40
1
 40
1
 10
8.747813
 20
3.632610
 30
0.0
 10
8.623994
 20
3.495040
 30
0.0
 10
8.500024
 20
3.357280
 30
0.0
 10
8.378327
 20
3.219720
 30
0.0
  0
SPLINE
  5
1c4
100
AcDbEntity
  8
Layer_1
 62
7
100
AcDbSpline
 70
8
 71
3
 72
8
 73
4
 74
0
 40
0
 40
0
 40
0
 40
0
 40
1
 40
1
 40
1
 40
1
 10
8.378327
 20
3.219720
 30
0.0
 10
8.226646
 20
3.048250
 30
0.0
 10
8.073385
 20
2.875130
 30
0.0
 10
7.918407
 20
2.700370
 30
0.0
  0
SPLINE
  5
1c5
100
AcDbEntity
  8
Layer_1
 62
7
100
AcDbSpline
 70
8
 71
3
 72
8
 73
4
 74
0
 40
0
 40
0
 40
0
 40
0
 40
1
 40
1
 40
1
 40
1
 10
7.918407
 20
2.700370
 30
0.0
 10
7.832677
 20
2.608070
 30
0.0
 10
7.762070
 20
2.527760
 30
0.0
 10
7.706017
 20
2.458520
 30
0.0
  0
SPLINE
  5
1c6
100
AcDbEntity
  8
Layer_1
 62
7
100
AcDbSpline
 70
8
 71
3
 72
8
 73
4
 74
0
 40
0
 40
0
 40
0
 40
0
 40
1
 40
1
 40
1
 40
1
 10
7.706017
 20
2.458520
 30
0.0
 10
7.653257
 20
2.389220
 30
0.0
 10
7.608447
 20
2.321370
 30
0.0
 10
7.572175
 20
2.255430
 30
0.0
  0
SPLINE
  5
1c7
100
AcDbEntity
  8
Layer_1
 62
7
100
AcDbSpline
 70
8
 71
3
 72
8
 73
4
 74
0
 40
0
 40
0
 40
0
 40
0
 40
1
 40
1
 40
1
 40
1
 10
7.572175
 20
2.255430
 30
0.0
 10
7.554515
 20
2.224930
 30
0.0
 10
7.537125
 20
2.191930
 30
0.0
 10
7.519465
 20
2.156730
 30
0.0
  0
LWPOLYLINE
  5
1c8
100
AcDbEntity
  8
Layer_1
 62
7
100
AcDbPolyline
 90
1
 70
1
 10
5.148516
 20
4.100330
 30
0.0
  0
SPLINE
  5
1c9
100
AcDbEntity
  8
Layer_1
 62
7
100
AcDbSpline
 70
8
 71
3
 72
8
 73
4
 74
0
 40
0
 40
0
 40
0
 40
0
 40
1
 40
1
 40
1
 40
1
 10
7.425925
 20
2.156730
 30
0.0
 10
7.425226
 20
2.179730
 30
0.0
 10
7.423825
 20
2.202330
 30
0.0
 10
7.423825
 20
2.226030
 30
0.0
  0
LWPOLYLINE
  5
1ca
100
AcDbEntity
  8
Layer_1
 62
7
100
AcDbPolyline
 90
2
 70
0
 10
7.519465
 20
2.156730
 30
0.0
 10
7.425925
 20
2.156730
 30
0.0
  0
SPLINE
  5
1cb
100
AcDbEntity
  8
Layer_1
 62
7
100
AcDbSpline
 70
8
 71
3
 72
8
 73
4
 74
0
 40
0
 40
0
 40
0
 40
0
 40
1
 40
1
 40
1
 40
1
 10
7.423825
 20
3.165510
 30
0.0
 10
7.423825
 20
3.386430
 30
0.0
 10
7.452005
 20
3.564650
 30
0.0
 10
7.508055
 20
3.699840
 30
0.0
  0
SPLINE
  5
1cc
100
AcDbEntity
  8
Layer_1
 62
7
100
AcDbSpline
 70
8
 71
3
 72
8
 73
4
 74
0
 40
0
 40
0
 40
0
 40
0
 40
1
 40
1
 40
1
 40
1
 10
7.508055
 20
3.699840
 30
0.0
 10
7.564115
 20
3.838310
 30
0.0
 10
7.643030
 20
3.938960
 30
0.0
 10
7.745250
 20
4.001630
 30
0.0
  0
SPLINE
  5
1cd
100
AcDbEntity
  8
Layer_1
 62
7
100
AcDbSpline
 70
8
 71
3
 72
8
 73
4
 74
0
 40
0
 40
0
 40
0
 40
0
 40
1
 40
1
 40
1
 40
1
 10
7.745250
 20
4.001630
 30
0.0
 10
7.850766
 20
4.067530
 30
0.0
 10
7.974498
 20
4.100330
 30
0.0
 10
8.116286
 20
4.100330
 30
0.0
  0
LWPOLYLINE
  5
1ce
100
AcDbEntity
  8
Layer_1
 62
7
100
AcDbPolyline
 90
2
 70
0
 10
7.423825
 20
2.226030
 30
0.0
 10
7.423825
 20
3.165510
 30
0.0
  0
LWPOLYLINE
  5
1cf
100
AcDbEntity
  8
Layer_1
 62
7
100
AcDbPolyline
 90
1
 70
1
 10
8.116286
 20
4.100330
 30
0.0
  0
SPLINE
  5
1d0
100
AcDbEntity
  8
Layer_1
 62
7
100
AcDbSpline
 70
8
 71
3
 72
8
 73
4
 74
0
 40
0
 40
0
 40
0
 40
0
 40
1
 40
1
 40
1
 40
1
 10
2.869103
 20
3.274450
 30
0.0
 10
2.870803
 20
3.241650
 30
0.0
 10
2.873703
 20
3.209950
 30
0.0
 10
2.873703
 20
3.175250
 30
0.0
  0
LWPOLYLINE
  5
1d1
100
AcDbEntity
  8
Layer_1
 62
7
100
AcDbPolyline
 90
2
 70
0
 10
2.776603
 20
3.274450
 30
0.0
 10
2.869103
 20
3.274450
 30
0.0
  0
SPLINE
  5
1d2
100
AcDbEntity
  8
Layer_1
 62
7
100
AcDbSpline
 70
8
 71
3
 72
8
 73
4
 74
0
 40
0
 40
0
 40
0
 40
0
 40
1
 40
1
 40
1
 40
1
 10
2.873703
 20
2.225960
 30
0.0
 10
2.873703
 20
2.011620
 30
0.0
 10
2.843653
 20
1.835280
 30
0.0
 10
2.784303
 20
1.696790
 30
0.0
  0
SPLINE
  5
1d3
100
AcDbEntity
  8
Layer_1
 62
7
100
AcDbSpline
 70
8
 71
3
 72
8
 73
4
 74
0
 40
0
 40
0
 40
0
 40
0
 40
1
 40
1
 40
1
 40
1
 10
2.784303
 20
1.696790
 30
0.0
 10
2.728243
 20
1.561600
 30
0.0
 10
2.647458
 20
1.459070
 30
0.0
 10
2.541941
 20
1.389830
 30
0.0
  0
SPLINE
  5
1d4
100
AcDbEntity
  8
Layer_1
 62
7
100
AcDbSpline
 70
8
 71
3
 72
8
 73
4
 74
0
 40
0
 40
0
 40
0
 40
0
 40
1
 40
1
 40
1
 40
1
 10
2.541941
 20
1.389830
 30
0.0
 10
2.436424
 20
1.323930
 30
0.0
 10
2.313209
 20
1.291130
 30
0.0
 10
2.171421
 20
1.291130
 30
0.0
  0
SPLINE
  5
1d5
100
AcDbEntity
  8
Layer_1
 62
7
100
AcDbSpline
 70
8
 71
3
 72
8
 73
4
 74
0
 40
0
 40
0
 40
0
 40
0
 40
1
 40
1
 40
1
 40
1
 10
2.171421
 20
1.291130
 30
0.0
 10
2.042822
 20
1.291130
 30
0.0
 10
1.930632
 20
1.317430
 30
0.0
 10
1.835007
 20
1.370230
 30
0.0
  0
SPLINE
  5
1d6
100
AcDbEntity
  8
Layer_1
 62
7
100
AcDbSpline
 70
8
 71
3
 72
8
 73
4
 74
0
 40
0
 40
0
 40
0
 40
0
 40
1
 40
1
 40
1
 40
1
 10
1.835007
 20
1.370230
 30
0.0
 10
1.742677
 20
1.426330
 30
0.0
 10
1.668335
 20
1.505210
 30
0.0
 10
1.612282
 20
1.607420
 30
0.0
  0
SPLINE
  5
1d7
100
AcDbEntity
  8
Layer_1
 62
7
100
AcDbSpline
 70
8
 71
3
 72
8
 73
4
 74
0
 40
0
 40
0
 40
0
 40
0
 40
1
 40
1
 40
1
 40
1
 10
1.612282
 20
1.607420
 30
0.0
 10
1.585902
 20
1.653620
 30
0.0
 10
1.562822
 20
1.706720
 30
0.0
 10
1.543032
 20
1.766070
 30
0.0
  0
SPLINE
  5
1d8
100
AcDbEntity
  8
Layer_1
 62
7
100
AcDbSpline
 70
8
 71
3
 72
8
 73
4
 74
0
 40
0
 40
0
 40
0
 40
0
 40
1
 40
1
 40
1
 40
1
 10
1.543032
 20
1.766070
 30
0.0
 10
1.541132
 20
1.773070
 30
0.0
 10
1.539732
 20
1.781770
 30
0.0
 10
1.537832
 20
1.789270
 30
0.0
  0
SPLINE
  5
1d9
100
AcDbEntity
  8
Layer_1
 62
7
100
AcDbSpline
 70
8
 71
3
 72
8
 73
4
 74
0
 40
0
 40
0
 40
0
 40
0
 40
1
 40
1
 40
1
 40
1
 10
1.537832
 20
1.789270
 30
0.0
 10
1.614692
 20
1.873070
 30
0.0
 10
1.692077
 20
1.957280
 30
0.0
 10
1.765725
 20
2.037840
 30
0.0
  0
LWPOLYLINE
  5
1da
100
AcDbEntity
  8
Layer_1
 62
7
100
AcDbPolyline
 90
2
 70
0
 10
2.873703
 20
3.175250
 30
0.0
 10
2.873703
 20
2.225960
 30
0.0
  0
SPLINE
  5
1db
100
AcDbEntity
  8
Layer_1
 62
7
100
AcDbSpline
 70
8
 71
3
 72
8
 73
4
 74
0
 40
0
 40
0
 40
0
 40
0
 40
1
 40
1
 40
1
 40
1
 10
2.081984
 20
2.384070
 30
0.0
 10
2.187502
 20
2.502770
 30
0.0
 10
2.293244
 20
2.623280
 30
0.0
 10
2.398761
 20
2.745290
 30
0.0
  0
SPLINE
  5
1dc
100
AcDbEntity
  8
Layer_1
 62
7
100
AcDbSpline
 70
8
 71
3
 72
8
 73
4
 74
0
 40
0
 40
0
 40
0
 40
0
 40
1
 40
1
 40
1
 40
1
 10
2.398761
 20
2.745290
 30
0.0
 10
2.461411
 20
2.811290
 30
0.0
 10
2.517249
 20
2.876760
 30
0.0
 10
2.566709
 20
2.942690
 30
0.0
  0
SPLINE
  5
1dd
100
AcDbEntity
  8
Layer_1
 62
7
100
AcDbSpline
 70
8
 71
3
 72
8
 73
4
 74
0
 40
0
 40
0
 40
0
 40
0
 40
1
 40
1
 40
1
 40
1
 10
2.566709
 20
2.942690
 30
0.0
 10
2.619469
 20
3.008590
 30
0.0
 10
2.667503
 20
3.077890
 30
0.0
 10
2.710370
 20
3.150430
 30
0.0
  0
SPLINE
  5
1de
100
AcDbEntity
  8
Layer_1
 62
7
100
AcDbSpline
 70
8
 71
3
 72
8
 73
4
 74
0
 40
0
 40
0
 40
0
 40
0
 40
1
 40
1
 40
1
 40
1
 10
2.710370
 20
3.150430
 30
0.0
 10
2.734370
 20
3.189830
 30
0.0
 10
2.756080
 20
3.231430
 30
0.0
 10
2.776520
 20
3.274450
 30
0.0
  0
LWPOLYLINE
  5
1df
100
AcDbEntity
  8
Layer_1
 62
7
100
AcDbPolyline
 90
2
 70
0
 10
1.765725
 20
2.037840
 30
0.0
 10
2.081984
 20
2.384070
 30
0.0
  0
LWPOLYLINE
  5
1e0
100
AcDbEntity
  8
Layer_1
 62
7
100
AcDbPolyline
 90
1
 70
1
 10
2.776520
 20
3.274450
 30
0.0
  0
SPLINE
  5
1e1
100
AcDbEntity
  8
Layer_1
 62
7
100
AcDbSpline
 70
8
 71
3
 72
8
 73
4
 74
0
 40
0
 40
0
 40
0
 40
0
 40
1
 40
1
 40
1
 40
1
 10
5.836880
 20
3.274450
 30
0.0
 10
5.838580
 20
3.241650
 30
0.0
 10
5.840980
 20
3.209950
 30
0.0
 10
5.840980
 20
3.175250
 30
0.0
  0
LWPOLYLINE
  5
1e2
100
AcDbEntity
  8
Layer_1
 62
7
100
AcDbPolyline
 90
2
 70
0
 10
5.744380
 20
3.274450
 30
0.0
 10
5.836880
 20
3.274450
 30
0.0
  0
SPLINE
  5
1e3
100
AcDbEntity
  8
Layer_1
 62
7
100
AcDbSpline
 70
8
 71
3
 72
8
 73
4
 74
0
 40
0
 40
0
 40
0
 40
0
 40
1
 40
1
 40
1
 40
1
 10
5.840980
 20
2.225960
 30
0.0
 10
5.840980
 20
2.011620
 30
0.0
 10
5.811450
 20
1.835280
 30
0.0
 10
5.752100
 20
1.696790
 30
0.0
  0
SPLINE
  5
1e4
100
AcDbEntity
  8
Layer_1
 62
7
100
AcDbSpline
 70
8
 71
3
 72
8
 73
4
 74
0
 40
0
 40
0
 40
0
 40
0
 40
1
 40
1
 40
1
 40
1
 10
5.752100
 20
1.696790
 30
0.0
 10
5.696040
 20
1.561600
 30
0.0
 10
5.615255
 20
1.459070
 30
0.0
 10
5.509737
 20
1.389830
 30
0.0
  0
SPLINE
  5
1e5
100
AcDbEntity
  8
Layer_1
 62
7
100
AcDbSpline
 70
8
 71
3
 72
8
 73
4
 74
0
 40
0
 40
0
 40
0
 40
0
 40
1
 40
1
 40
1
 40
1
 10
5.509737
 20
1.389830
 30
0.0
 10
5.404221
 20
1.323930
 30
0.0
 10
5.280489
 20
1.291130
 30
0.0
 10
5.138700
 20
1.291130
 30
0.0
  0
SPLINE
  5
1e6
100
AcDbEntity
  8
Layer_1
 62
7
100
AcDbSpline
 70
8
 71
3
 72
8
 73
4
 74
0
 40
0
 40
0
 40
0
 40
0
 40
1
 40
1
 40
1
 40
1
 10
5.138700
 20
1.291130
 30
0.0
 10
5.010102
 20
1.291130
 30
0.0
 10
4.897912
 20
1.317430
 30
0.0
 10
4.802287
 20
1.370230
 30
0.0
  0
SPLINE
  5
1e7
100
AcDbEntity
  8
Layer_1
 62
7
100
AcDbSpline
 70
8
 71
3
 72
8
 73
4
 74
0
 40
0
 40
0
 40
0
 40
0
 40
1
 40
1
 40
1
 40
1
 10
4.802287
 20
1.370230
 30
0.0
 10
4.709957
 20
1.426330
 30
0.0
 10
4.636132
 20
1.505210
 30
0.0
 10
4.580078
 20
1.607420
 30
0.0
  0
SPLINE
  5
1e8
100
AcDbEntity
  8
Layer_1
 62
7
100
AcDbSpline
 70
8
 71
3
 72
8
 73
4
 74
0
 40
0
 40
0
 40
0
 40
0
 40
1
 40
1
 40
1
 40
1
 10
4.580078
 20
1.607420
 30
0.0
 10
4.553698
 20
1.653620
 30
0.0
 10
4.530618
 20
1.706720
 30
0.0
 10
4.510828
 20
1.766070
 30
0.0
  0
SPLINE
  5
1e9
100
AcDbEntity
  8
Layer_1
 62
7
100
AcDbSpline
 70
8
 71
3
 72
8
 73
4
 74
0
 40
0
 40
0
 40
0
 40
0
 40
1
 40
1
 40
1
 40
1
 10
4.510828
 20
1.766070
 30
0.0
 10
4.508928
 20
1.773070
 30
0.0
 10
4.507528
 20
1.781770
 30
0.0
 10
4.505628
 20
1.789270
 30
0.0
  0
SPLINE
  5
1ea
100
AcDbEntity
  8
Layer_1
 62
7
100
AcDbSpline
 70
8
 71
3
 72
8
 73
4
 74
0
 40
0
 40
0
 40
0
 40
0
 40
1
 40
1
 40
1
 40
1
 10
4.505628
 20
1.789270
 30
0.0
 10
4.582458
 20
1.872970
 30
0.0
 10
4.659380
 20
1.957310
 30
0.0
 10
4.733004
 20
2.037840
 30
0.0
  0
LWPOLYLINE
  5
1eb
100
AcDbEntity
  8
Layer_1
 62
7
100
AcDbPolyline
 90
2
 70
0
 10
5.840980
 20
3.175250
 30
0.0
 10
5.840980
 20
2.225960
 30
0.0
  0
SPLINE
  5
1ec
100
AcDbEntity
  8
Layer_1
 62
7
100
AcDbSpline
 70
8
 71
3
 72
8
 73
4
 74
0
 40
0
 40
0
 40
0
 40
0
 40
1
 40
1
 40
1
 40
1
 10
5.049781
 20
2.384070
 30
0.0
 10
5.155298
 20
2.502770
 30
0.0
 10
5.261040
 20
2.623280
 30
0.0
 10
5.366557
 20
2.745290
 30
0.0
  0
SPLINE
  5
1ed
100
AcDbEntity
  8
Layer_1
 62
7
100
AcDbSpline
 70
8
 71
3
 72
8
 73
4
 74
0
 40
0
 40
0
 40
0
 40
0
 40
1
 40
1
 40
1
 40
1
 10
5.366557
 20
2.745290
 30
0.0
 10
5.429207
 20
2.811290
 30
0.0
 10
5.485046
 20
2.876760
 30
0.0
 10
5.534506
 20
2.942690
 30
0.0
  0
SPLINE
  5
1ee
100
AcDbEntity
  8
Layer_1
 62
7
100
AcDbSpline
 70
8
 71
3
 72
8
 73
4
 74
0
 40
0
 40
0
 40
0
 40
0
 40
1
 40
1
 40
1
 40
1
 10
5.534506
 20
2.942690
 30
0.0
 10
5.587266
 20
3.008590
 30
0.0
 10
5.635300
 20
3.077890
 30
0.0
 10
5.678166
 20
3.150430
 30
0.0
  0
SPLINE
  5
1ef
100
AcDbEntity
  8
Layer_1
 62
7
100
AcDbSpline
 70
8
 71
3
 72
8
 73
4
 74
0
 40
0
 40
0
 40
0
 40
0
 40
1
 40
1
 40
1
 40
1
 10
5.678166
 20
3.150430
 30
0.0
 10
5.702166
 20
3.189830
 30
0.0
 10
5.723876
 20
3.231430
 30
0.0
 10
5.744316
 20
3.274450
 30
0.0
  0
LWPOLYLINE
  5
1f0
100
AcDbEntity
  8
Layer_1
 62
7
100
AcDbPolyline
 90
2
 70
0
 10
4.733004
 20
2.037840
 30
0.0
 10
5.049781
 20
2.384070
 30
0.0
  0
LWPOLYLINE
  5
1f1
100
AcDbEntity
  8
Layer_1
 62
7
100
AcDbPolyline
 90
1
 70
1
 10
5.744316
 20
3.274450
 30
0.0
  0
SPLINE
  5
1f2
100
AcDbEntity
  8
Layer_1
 62
7
100
AcDbSpline
 70
8
 71
3
 72
8
 73
4
 74
0
 40
0
 40
0
 40
0
 40
0
 40
1
 40
1
 40
1
 40
1
 10
8.804658
 20
3.274450
 30
0.0
 10
8.806358
 20
3.241650
 30
0.0
 10
8.808758
 20
3.209950
 30
0.0
 10
8.808758
 20
3.175250
 30
0.0
  0
LWPOLYLINE
  5
1f3
100
AcDbEntity
  8
Layer_1
 62
7
100
AcDbPolyline
 90
2
 70
0
 10
8.712158
 20
3.274450
 30
0.0
 10
8.804658
 20
3.274450
 30
0.0
  0
SPLINE
  5
1f4
100
AcDbEntity
  8
Layer_1
 62
7
100
AcDbSpline
 70
8
 71
3
 72
8
 73
4
 74
0
 40
0
 40
0
 40
0
 40
0
 40
1
 40
1
 40
1
 40
1
 10
8.808758
 20
2.225960
 30
0.0
 10
8.808758
 20
2.011620
 30
0.0
 10
8.779228
 20
1.835280
 30
0.0
 10
8.719878
 20
1.696790
 30
0.0
  0
SPLINE
  5
1f5
100
AcDbEntity
  8
Layer_1
 62
7
100
AcDbSpline
 70
8
 71
3
 72
8
 73
4
 74
0
 40
0
 40
0
 40
0
 40
0
 40
1
 40
1
 40
1
 40
1
 10
8.719878
 20
1.696790
 30
0.0
 10
8.663818
 20
1.561600
 30
0.0
 10
8.583032
 20
1.459070
 30
0.0
 10
8.477516
 20
1.389830
 30
0.0
  0
SPLINE
  5
1f6
100
AcDbEntity
  8
Layer_1
 62
7
100
AcDbSpline
 70
8
 71
3
 72
8
 73
4
 74
0
 40
0
 40
0
 40
0
 40
0
 40
1
 40
1
 40
1
 40
1
 10
8.477516
 20
1.389830
 30
0.0
 10
8.371998
 20
1.323930
 30
0.0
 10
8.248267
 20
1.291130
 30
0.0
 10
8.106479
 20
1.291130
 30
0.0
  0
SPLINE
  5
1f7
100
AcDbEntity
  8
Layer_1
 62
7
100
AcDbSpline
 70
8
 71
3
 72
8
 73
4
 74
0
 40
0
 40
0
 40
0
 40
0
 40
1
 40
1
 40
1
 40
1
 10
8.106479
 20
1.291130
 30
0.0
 10
7.977880
 20
1.291130
 30
0.0
 10
7.865690
 20
1.317430
 30
0.0
 10
7.770065
 20
1.370230
 30
0.0
  0
SPLINE
  5
1f8
100
AcDbEntity
  8
Layer_1
 62
7
100
AcDbSpline
 70
8
 71
3
 72
8
 73
4
 74
0
 40
0
 40
0
 40
0
 40
0
 40
1
 40
1
 40
1
 40
1
 10
7.770065
 20
1.370230
 30
0.0
 10
7.677735
 20
1.426330
 30
0.0
 10
7.603910
 20
1.505210
 30
0.0
 10
7.547857
 20
1.607420
 30
0.0
  0
SPLINE
  5
1f9
100
AcDbEntity
  8
Layer_1
 62
7
100
AcDbSpline
 70
8
 71
3
 72
8
 73
4
 74
0
 40
0
 40
0
 40
0
 40
0
 40
1
 40
1
 40
1
 40
1
 10
7.547857
 20
1.607420
 30
0.0
 10
7.521487
 20
1.653620
 30
0.0
 10
7.498397
 20
1.706720
 30
0.0
 10
7.478607
 20
1.766070
 30
0.0
  0
SPLINE
  5
1fa
100
AcDbEntity
  8
Layer_1
 62
7
100
AcDbSpline
 70
8
 71
3
 72
8
 73
4
 74
0
 40
0
 40
0
 40
0
 40
0
 40
1
 40
1
 40
1
 40
1
 10
7.478607
 20
1.766070
 30
0.0
 10
7.476707
 20
1.773070
 30
0.0
 10
7.475307
 20
1.781770
 30
0.0
 10
7.473407
 20
1.789270
 30
0.0
  0
SPLINE
  5
1fb
100
AcDbEntity
  8
Layer_1
 62
7
100
AcDbSpline
 70
8
 71
3
 72
8
 73
4
 74
0
 40
0
 40
0
 40
0
 40
0
 40
1
 40
1
 40
1
 40
1
 10
7.473407
 20
1.789270
 30
0.0
 10
7.550237
 20
1.872970
 30
0.0
 10
7.627159
 20
1.957310
 30
0.0
 10
7.700783
 20
2.037840
 30
0.0
  0
LWPOLYLINE
  5
1fc
100
AcDbEntity
  8
Layer_1
 62
7
100
AcDbPolyline
 90
2
 70
0
 10
8.808758
 20
3.175250
 30
0.0
 10
8.808758
 20
2.225960
 30
0.0
  0
SPLINE
  5
1fd
100
AcDbEntity
  8
Layer_1
 62
7
100
AcDbSpline
 70
8
 71
3
 72
8
 73
4
 74
0
 40
0
 40
0
 40
0
 40
0
 40
1
 40
1
 40
1
 40
1
 10
8.017559
 20
2.384070
 30
0.0
 10
8.123076
 20
2.502770
 30
0.0
 10
8.228302
 20
2.623280
 30
0.0
 10
8.333819
 20
2.745290
 30
0.0
  0
SPLINE
  5
1fe
100
AcDbEntity
  8
Layer_1
 62
7
100
AcDbSpline
 70
8
 71
3
 72
8
 73
4
 74
0
 40
0
 40
0
 40
0
 40
0
 40
1
 40
1
 40
1
 40
1
 10
8.333819
 20
2.745290
 30
0.0
 10
8.396469
 20
2.811290
 30
0.0
 10
8.452824
 20
2.876760
 30
0.0
 10
8.502284
 20
2.942690
 30
0.0
  0
SPLINE
  5
1ff
100
AcDbEntity
  8
Layer_1
 62
7
100
AcDbSpline
 70
8
 71
3
 72
8
 73
4
 74
0
 40
0
 40
0
 40
0
 40
0
 40
1
 40
1
 40
1
 40
1
 10
8.502284
 20
2.942690
 30
0.0
 10
8.555044
 20
3.008590
 30
0.0
 10
8.602561
 20
3.077890
 30
0.0
 10
8.645428
 20
3.150430
 30
0.0
  0
SPLINE
  5
200
100
AcDbEntity
  8
Layer_1
 62
7
100
AcDbSpline
 70
8
 71
3
 72
8
 73
4
 74
0
 40
0
 40
0
 40
0
 40
0
 40
1
 40
1
 40
1
 40
1
 10
8.645428
 20
3.150430
 30
0.0
 10
8.669428
 20
3.189830
 30
0.0
 10
8.691658
 20
3.231430
 30
0.0
 10
8.712088
 20
3.274450
 30
0.0
  0
LWPOLYLINE
  5
201
100
AcDbEntity
  8
Layer_1
 62
7
100
AcDbPolyline
 90
2
 70
0
 10
7.700783
 20
2.037840
 30
0.0
 10
8.017559
 20
2.384070
 30
0.0
  0
LWPOLYLINE
  5
202
100
AcDbEntity
  8
Layer_1
 62
7
100
AcDbPolyline
 90
1
 70
1
 10
8.712088
 20
3.274450
 30
0.0
  0
ENDSEC
  0
SECTION
  2
OBJECTS
  0
DICTIONARY
  5
C
330
0
100
AcDbDictionary
  3
ACAD_GROUP
350
D
  3
ACAD_MLINESTYLE
350
17
  0
DICTIONARY
  5
D
330
C
100
AcDbDictionary
  0
DICTIONARY
  5
1A
330
C
100
AcDbDictionary
  0
DICTIONARY
  5
17
330
C
100
AcDbDictionary
  3
STANDARD
350
18
  0
DICTIONARY
  5
19
330
C
100
AcDbDictionary
  0
ENDSEC
  0
EOF
