G04 #@! TF.GenerationSoftware,KiCad,Pcbnew,8.0.6*
G04 #@! TF.CreationDate,2025-01-13T18:43:11+01:00*
G04 #@! TF.ProjectId,numpad,6e756d70-6164-42e6-9b69-6361645f7063,rev?*
G04 #@! TF.SameCoordinates,Original*
G04 #@! TF.FileFunction,Soldermask,Top*
G04 #@! TF.FilePolarity,Negative*
%FSLAX46Y46*%
G04 Gerber Fmt 4.6, Leading zero omitted, Abs format (unit mm)*
G04 Created by KiCad (PCBNEW 8.0.6) date 2025-01-13 18:43:11*
%MOMM*%
%LPD*%
G01*
G04 APERTURE LIST*
G04 Aperture macros list*
%AMRoundRect*
0 Rectangle with rounded corners*
0 $1 Rounding radius*
0 $2 $3 $4 $5 $6 $7 $8 $9 X,Y pos of 4 corners*
0 Add a 4 corners polygon primitive as box body*
4,1,4,$2,$3,$4,$5,$6,$7,$8,$9,$2,$3,0*
0 Add four circle primitives for the rounded corners*
1,1,$1+$1,$2,$3*
1,1,$1+$1,$4,$5*
1,1,$1+$1,$6,$7*
1,1,$1+$1,$8,$9*
0 Add four rect primitives between the rounded corners*
20,1,$1+$1,$2,$3,$4,$5,0*
20,1,$1+$1,$4,$5,$6,$7,0*
20,1,$1+$1,$6,$7,$8,$9,0*
20,1,$1+$1,$8,$9,$2,$3,0*%
G04 Aperture macros list end*
%ADD10RoundRect,0.500000X0.500000X-0.875000X0.500000X0.875000X-0.500000X0.875000X-0.500000X-0.875000X0*%
%ADD11R,1.600000X1.600000*%
%ADD12C,1.600000*%
%ADD13R,1.550000X2.000000*%
%ADD14R,2.000000X2.000000*%
%ADD15RoundRect,0.225000X-0.225000X-0.375000X0.225000X-0.375000X0.225000X0.375000X-0.225000X0.375000X0*%
G04 APERTURE END LIST*
D10*
G04 #@! TO.C,U1*
X30498750Y-42171250D03*
D11*
X30498750Y-41726250D03*
D10*
X33038750Y-42171250D03*
D12*
X33038750Y-41726250D03*
D10*
X35578750Y-42171250D03*
D12*
X35578750Y-41726250D03*
D10*
X38118750Y-42171250D03*
D12*
X38118750Y-41726250D03*
D10*
X40658750Y-42171250D03*
D12*
X40658750Y-41726250D03*
D10*
X43198750Y-42171250D03*
D12*
X43198750Y-41726250D03*
D10*
X45738750Y-42171250D03*
D12*
X45738750Y-41726250D03*
X45738750Y-26486250D03*
D10*
X45738750Y-26006250D03*
D12*
X43198750Y-26486250D03*
D10*
X43198750Y-26006250D03*
D12*
X40658750Y-26486250D03*
D10*
X40658750Y-26006250D03*
D12*
X38118750Y-26486250D03*
D10*
X38118750Y-26006250D03*
D12*
X35578750Y-26486250D03*
D10*
X35578750Y-26006250D03*
D12*
X33038750Y-26486250D03*
D10*
X33038750Y-26006250D03*
D12*
X30498750Y-26486250D03*
D10*
X30498750Y-26006250D03*
G04 #@! TD*
D13*
G04 #@! TO.C,SW18*
X85775000Y-102962500D03*
X90775000Y-102962500D03*
D14*
X81925000Y-94312500D03*
X81925000Y-106312500D03*
X94625000Y-94312500D03*
X94625000Y-106312500D03*
G04 #@! TD*
D13*
G04 #@! TO.C,SW17*
X65712500Y-102962500D03*
X70712500Y-102962500D03*
D14*
X61862500Y-94312500D03*
X61862500Y-106312500D03*
X74562500Y-94312500D03*
X74562500Y-106312500D03*
G04 #@! TD*
D13*
G04 #@! TO.C,SW16*
X49662500Y-102962500D03*
X54662500Y-102962500D03*
D14*
X45812500Y-94312500D03*
X45812500Y-106312500D03*
X58512500Y-94312500D03*
X58512500Y-106312500D03*
G04 #@! TD*
D13*
G04 #@! TO.C,SW15*
X33612500Y-102962500D03*
X38612500Y-102962500D03*
D14*
X29762500Y-94312500D03*
X29762500Y-106312500D03*
X42462500Y-94312500D03*
X42462500Y-106312500D03*
G04 #@! TD*
D13*
G04 #@! TO.C,SW14*
X85775000Y-86912500D03*
X90775000Y-86912500D03*
D14*
X81925000Y-78262500D03*
X81925000Y-90262500D03*
X94625000Y-78262500D03*
X94625000Y-90262500D03*
G04 #@! TD*
D13*
G04 #@! TO.C,SW13*
X65712500Y-86912500D03*
X70712500Y-86912500D03*
D14*
X61862500Y-78262500D03*
X61862500Y-90262500D03*
X74562500Y-78262500D03*
X74562500Y-90262500D03*
G04 #@! TD*
D13*
G04 #@! TO.C,SW12*
X49662500Y-86912500D03*
X54662500Y-86912500D03*
D14*
X45812500Y-78262500D03*
X45812500Y-90262500D03*
X58512500Y-78262500D03*
X58512500Y-90262500D03*
G04 #@! TD*
D13*
G04 #@! TO.C,SW11*
X33612500Y-86912500D03*
X38612500Y-86912500D03*
D14*
X29762500Y-78262500D03*
X29762500Y-90262500D03*
X42462500Y-78262500D03*
X42462500Y-90262500D03*
G04 #@! TD*
D13*
G04 #@! TO.C,SW10*
X85775000Y-70862500D03*
X90775000Y-70862500D03*
D14*
X81925000Y-62212500D03*
X81925000Y-74212500D03*
X94625000Y-62212500D03*
X94625000Y-74212500D03*
G04 #@! TD*
D13*
G04 #@! TO.C,SW9*
X65712500Y-70862500D03*
X70712500Y-70862500D03*
D14*
X61862500Y-62212500D03*
X61862500Y-74212500D03*
X74562500Y-62212500D03*
X74562500Y-74212500D03*
G04 #@! TD*
D13*
G04 #@! TO.C,SW8*
X49662500Y-70862500D03*
X54662500Y-70862500D03*
D14*
X45812500Y-62212500D03*
X45812500Y-74212500D03*
X58512500Y-62212500D03*
X58512500Y-74212500D03*
G04 #@! TD*
D13*
G04 #@! TO.C,SW7*
X33612500Y-70862500D03*
X38612500Y-70862500D03*
D14*
X29762500Y-62212500D03*
X29762500Y-74212500D03*
X42462500Y-62212500D03*
X42462500Y-74212500D03*
G04 #@! TD*
D13*
G04 #@! TO.C,SW6*
X85775000Y-54812500D03*
X90775000Y-54812500D03*
D14*
X81925000Y-46162500D03*
X81925000Y-58162500D03*
X94625000Y-46162500D03*
X94625000Y-58162500D03*
G04 #@! TD*
D13*
G04 #@! TO.C,SW5*
X65712500Y-54812500D03*
X70712500Y-54812500D03*
D14*
X61862500Y-46162500D03*
X61862500Y-58162500D03*
X74562500Y-46162500D03*
X74562500Y-58162500D03*
G04 #@! TD*
D13*
G04 #@! TO.C,SW4*
X49662500Y-54812500D03*
X54662500Y-54812500D03*
D14*
X45812500Y-46162500D03*
X45812500Y-58162500D03*
X58512500Y-46162500D03*
X58512500Y-58162500D03*
G04 #@! TD*
D13*
G04 #@! TO.C,SW3*
X33612500Y-54812500D03*
X38612500Y-54812500D03*
D14*
X29762500Y-46162500D03*
X29762500Y-58162500D03*
X42462500Y-46162500D03*
X42462500Y-58162500D03*
G04 #@! TD*
D13*
G04 #@! TO.C,SW2*
X77750000Y-34750000D03*
X82750000Y-34750000D03*
D14*
X73900000Y-26100000D03*
X73900000Y-38100000D03*
X86600000Y-26100000D03*
X86600000Y-38100000D03*
G04 #@! TD*
D13*
G04 #@! TO.C,SW1*
X61700000Y-34750000D03*
X66700000Y-34750000D03*
D14*
X57850000Y-26100000D03*
X57850000Y-38100000D03*
X70550000Y-26100000D03*
X70550000Y-38100000D03*
G04 #@! TD*
D15*
G04 #@! TO.C,D18*
X87025000Y-98012500D03*
X90325000Y-98012500D03*
G04 #@! TD*
G04 #@! TO.C,D17*
X66962500Y-98012500D03*
X70262500Y-98012500D03*
G04 #@! TD*
G04 #@! TO.C,D16*
X50912500Y-98012500D03*
X54212500Y-98012500D03*
G04 #@! TD*
G04 #@! TO.C,D15*
X34862500Y-98012500D03*
X38162500Y-98012500D03*
G04 #@! TD*
G04 #@! TO.C,D14*
X87025000Y-81962500D03*
X90325000Y-81962500D03*
G04 #@! TD*
G04 #@! TO.C,D13*
X66962500Y-81962500D03*
X70262500Y-81962500D03*
G04 #@! TD*
G04 #@! TO.C,D12*
X50912500Y-81962500D03*
X54212500Y-81962500D03*
G04 #@! TD*
G04 #@! TO.C,D11*
X34862500Y-81962500D03*
X38162500Y-81962500D03*
G04 #@! TD*
G04 #@! TO.C,D10*
X87025000Y-65912500D03*
X90325000Y-65912500D03*
G04 #@! TD*
G04 #@! TO.C,D9*
X66962500Y-65912500D03*
X70262500Y-65912500D03*
G04 #@! TD*
G04 #@! TO.C,D8*
X50912500Y-65912500D03*
X54212500Y-65912500D03*
G04 #@! TD*
G04 #@! TO.C,D7*
X34862500Y-65912500D03*
X38162500Y-65912500D03*
G04 #@! TD*
G04 #@! TO.C,D6*
X87025000Y-49862500D03*
X90325000Y-49862500D03*
G04 #@! TD*
G04 #@! TO.C,D5*
X66962500Y-49862500D03*
X70262500Y-49862500D03*
G04 #@! TD*
G04 #@! TO.C,D4*
X50912500Y-49862500D03*
X54212500Y-49862500D03*
G04 #@! TD*
G04 #@! TO.C,D3*
X34862500Y-49862500D03*
X38162500Y-49862500D03*
G04 #@! TD*
G04 #@! TO.C,D2*
X79000000Y-29800000D03*
X82300000Y-29800000D03*
G04 #@! TD*
G04 #@! TO.C,D1*
X62950000Y-29800000D03*
X66250000Y-29800000D03*
G04 #@! TD*
M02*
