M48
; DRILL file {KiCad 8.0.6} date 2025-01-13T18:43:11+0100
; FORMAT={-:-/ absolute / metric / decimal}
; #@! TF.CreationDate,2025-01-13T18:43:11+01:00
; #@! TF.GenerationSoftware,Kicad,Pcbnew,8.0.6
; #@! TF.FileFunction,Plated,1,2,PTH
FMAT,2
METRIC
; #@! TA.AperFunction,Plated,PTH,ViaDrill
T1C0.300
; #@! TA.AperFunction,Plated,PTH,ComponentDrill
T2C1.000
%
G90
G05
T1
X34.212Y-52.162
X34.212Y-68.212
X34.212Y-84.263
X34.212Y-100.312
X50.156Y-52.162
X50.262Y-68.212
X50.262Y-84.263
X50.262Y-100.312
X62.194Y-32.1
X66.312Y-52.162
X66.312Y-68.212
X66.312Y-84.263
X66.312Y-100.312
X78.244Y-32.1
X86.269Y-52.162
X86.375Y-68.212
X86.375Y-84.263
X86.375Y-100.312
T2
X30.499Y-26.486
X30.499Y-41.726
X33.039Y-26.486
X33.039Y-41.726
X35.579Y-26.486
X35.579Y-41.726
X38.119Y-26.486
X38.119Y-41.726
X40.659Y-26.486
X40.659Y-41.726
X43.199Y-26.486
X43.199Y-41.726
X45.739Y-26.486
X45.739Y-41.726
M30
