%TF.GenerationSoftware,KiCad,Pcbnew,8.0.6*%
%TF.CreationDate,2025-01-13T18:43:11+01:00*%
%TF.ProjectId,numpad,6e756d70-6164-42e6-9b69-6361645f7063,rev?*%
%TF.SameCoordinates,Original*%
%TF.FileFunction,Drillmap*%
%TF.FilePolarity,Positive*%
%FSLAX45Y45*%
G04 Gerber Fmt 4.5, Leading zero omitted, Abs format (unit mm)*
G04 Created by KiCad (PCBNEW 8.0.6) date 2025-01-13 18:43:11*
%MOMM*%
%LPD*%
G01*
G04 APERTURE LIST*
%ADD10C,0.050000*%
%ADD11C,0.100000*%
%ADD12C,0.200000*%
G04 APERTURE END LIST*
D10*
X2608125Y-2407505D02*
G75*
G02*
X2808755Y-2206875I200630J0D01*
G01*
X9629995Y-2206875D02*
G75*
G02*
X9830625Y-2407505I-5J-200635D01*
G01*
X2808755Y-11034375D02*
G75*
G02*
X2608125Y-10833745I0J200630D01*
G01*
X9830625Y-10833745D02*
G75*
G02*
X9629995Y-11034375I-200635J5D01*
G01*
X2808755Y-2206875D02*
X9629995Y-2206875D01*
X2608125Y-10833745D02*
X2608125Y-2407505D01*
X9830625Y-2407505D02*
X9830625Y-10833745D01*
X9629995Y-11034375D02*
X2808755Y-11034375D01*
D11*
X8297500Y-10306250D02*
G75*
G02*
X8197500Y-10306250I-50000J0D01*
G01*
X8197500Y-10306250D02*
G75*
G02*
X8297500Y-10306250I50000J0D01*
G01*
X9467500Y-9756250D02*
G75*
G02*
X9347500Y-9756250I-60000J0D01*
G01*
X9347500Y-9756250D02*
G75*
G02*
X9467500Y-9756250I60000J0D01*
G01*
X6291250Y-10306250D02*
G75*
G02*
X6191250Y-10306250I-50000J0D01*
G01*
X6191250Y-10306250D02*
G75*
G02*
X6291250Y-10306250I50000J0D01*
G01*
X7461250Y-9756250D02*
G75*
G02*
X7341250Y-9756250I-60000J0D01*
G01*
X7341250Y-9756250D02*
G75*
G02*
X7461250Y-9756250I60000J0D01*
G01*
X4686250Y-10306250D02*
G75*
G02*
X4586250Y-10306250I-50000J0D01*
G01*
X4586250Y-10306250D02*
G75*
G02*
X4686250Y-10306250I50000J0D01*
G01*
X5856250Y-9756250D02*
G75*
G02*
X5736250Y-9756250I-60000J0D01*
G01*
X5736250Y-9756250D02*
G75*
G02*
X5856250Y-9756250I60000J0D01*
G01*
X3081250Y-10306250D02*
G75*
G02*
X2981250Y-10306250I-50000J0D01*
G01*
X2981250Y-10306250D02*
G75*
G02*
X3081250Y-10306250I50000J0D01*
G01*
X4251250Y-9756250D02*
G75*
G02*
X4131250Y-9756250I-60000J0D01*
G01*
X4131250Y-9756250D02*
G75*
G02*
X4251250Y-9756250I60000J0D01*
G01*
X8297500Y-8701250D02*
G75*
G02*
X8197500Y-8701250I-50000J0D01*
G01*
X8197500Y-8701250D02*
G75*
G02*
X8297500Y-8701250I50000J0D01*
G01*
X9467500Y-8151250D02*
G75*
G02*
X9347500Y-8151250I-60000J0D01*
G01*
X9347500Y-8151250D02*
G75*
G02*
X9467500Y-8151250I60000J0D01*
G01*
X6291250Y-8701250D02*
G75*
G02*
X6191250Y-8701250I-50000J0D01*
G01*
X6191250Y-8701250D02*
G75*
G02*
X6291250Y-8701250I50000J0D01*
G01*
X7461250Y-8151250D02*
G75*
G02*
X7341250Y-8151250I-60000J0D01*
G01*
X7341250Y-8151250D02*
G75*
G02*
X7461250Y-8151250I60000J0D01*
G01*
X4686250Y-8701250D02*
G75*
G02*
X4586250Y-8701250I-50000J0D01*
G01*
X4586250Y-8701250D02*
G75*
G02*
X4686250Y-8701250I50000J0D01*
G01*
X5856250Y-8151250D02*
G75*
G02*
X5736250Y-8151250I-60000J0D01*
G01*
X5736250Y-8151250D02*
G75*
G02*
X5856250Y-8151250I60000J0D01*
G01*
X3081250Y-8701250D02*
G75*
G02*
X2981250Y-8701250I-50000J0D01*
G01*
X2981250Y-8701250D02*
G75*
G02*
X3081250Y-8701250I50000J0D01*
G01*
X4251250Y-8151250D02*
G75*
G02*
X4131250Y-8151250I-60000J0D01*
G01*
X4131250Y-8151250D02*
G75*
G02*
X4251250Y-8151250I60000J0D01*
G01*
X8297500Y-7096250D02*
G75*
G02*
X8197500Y-7096250I-50000J0D01*
G01*
X8197500Y-7096250D02*
G75*
G02*
X8297500Y-7096250I50000J0D01*
G01*
X9467500Y-6546250D02*
G75*
G02*
X9347500Y-6546250I-60000J0D01*
G01*
X9347500Y-6546250D02*
G75*
G02*
X9467500Y-6546250I60000J0D01*
G01*
X6291250Y-7096250D02*
G75*
G02*
X6191250Y-7096250I-50000J0D01*
G01*
X6191250Y-7096250D02*
G75*
G02*
X6291250Y-7096250I50000J0D01*
G01*
X7461250Y-6546250D02*
G75*
G02*
X7341250Y-6546250I-60000J0D01*
G01*
X7341250Y-6546250D02*
G75*
G02*
X7461250Y-6546250I60000J0D01*
G01*
X4686250Y-7096250D02*
G75*
G02*
X4586250Y-7096250I-50000J0D01*
G01*
X4586250Y-7096250D02*
G75*
G02*
X4686250Y-7096250I50000J0D01*
G01*
X5856250Y-6546250D02*
G75*
G02*
X5736250Y-6546250I-60000J0D01*
G01*
X5736250Y-6546250D02*
G75*
G02*
X5856250Y-6546250I60000J0D01*
G01*
X3081250Y-7096250D02*
G75*
G02*
X2981250Y-7096250I-50000J0D01*
G01*
X2981250Y-7096250D02*
G75*
G02*
X3081250Y-7096250I50000J0D01*
G01*
X4251250Y-6546250D02*
G75*
G02*
X4131250Y-6546250I-60000J0D01*
G01*
X4131250Y-6546250D02*
G75*
G02*
X4251250Y-6546250I60000J0D01*
G01*
X8297500Y-5491250D02*
G75*
G02*
X8197500Y-5491250I-50000J0D01*
G01*
X8197500Y-5491250D02*
G75*
G02*
X8297500Y-5491250I50000J0D01*
G01*
X9467500Y-4941250D02*
G75*
G02*
X9347500Y-4941250I-60000J0D01*
G01*
X9347500Y-4941250D02*
G75*
G02*
X9467500Y-4941250I60000J0D01*
G01*
X6291250Y-5491250D02*
G75*
G02*
X6191250Y-5491250I-50000J0D01*
G01*
X6191250Y-5491250D02*
G75*
G02*
X6291250Y-5491250I50000J0D01*
G01*
X7461250Y-4941250D02*
G75*
G02*
X7341250Y-4941250I-60000J0D01*
G01*
X7341250Y-4941250D02*
G75*
G02*
X7461250Y-4941250I60000J0D01*
G01*
X4686250Y-5491250D02*
G75*
G02*
X4586250Y-5491250I-50000J0D01*
G01*
X4586250Y-5491250D02*
G75*
G02*
X4686250Y-5491250I50000J0D01*
G01*
X5856250Y-4941250D02*
G75*
G02*
X5736250Y-4941250I-60000J0D01*
G01*
X5736250Y-4941250D02*
G75*
G02*
X5856250Y-4941250I60000J0D01*
G01*
X3081250Y-5491250D02*
G75*
G02*
X2981250Y-5491250I-50000J0D01*
G01*
X2981250Y-5491250D02*
G75*
G02*
X3081250Y-5491250I50000J0D01*
G01*
X4251250Y-4941250D02*
G75*
G02*
X4131250Y-4941250I-60000J0D01*
G01*
X4131250Y-4941250D02*
G75*
G02*
X4251250Y-4941250I60000J0D01*
G01*
X7495000Y-3485000D02*
G75*
G02*
X7395000Y-3485000I-50000J0D01*
G01*
X7395000Y-3485000D02*
G75*
G02*
X7495000Y-3485000I50000J0D01*
G01*
X8665000Y-2935000D02*
G75*
G02*
X8545000Y-2935000I-60000J0D01*
G01*
X8545000Y-2935000D02*
G75*
G02*
X8665000Y-2935000I60000J0D01*
G01*
X5890000Y-3485000D02*
G75*
G02*
X5790000Y-3485000I-50000J0D01*
G01*
X5790000Y-3485000D02*
G75*
G02*
X5890000Y-3485000I50000J0D01*
G01*
X7060000Y-2935000D02*
G75*
G02*
X6940000Y-2935000I-60000J0D01*
G01*
X6940000Y-2935000D02*
G75*
G02*
X7060000Y-2935000I60000J0D01*
G01*
D12*
X2866402Y-11348359D02*
X2866402Y-11148359D01*
X2866402Y-11148359D02*
X2914021Y-11148359D01*
X2914021Y-11148359D02*
X2942592Y-11157883D01*
X2942592Y-11157883D02*
X2961640Y-11176930D01*
X2961640Y-11176930D02*
X2971164Y-11195978D01*
X2971164Y-11195978D02*
X2980687Y-11234073D01*
X2980687Y-11234073D02*
X2980687Y-11262644D01*
X2980687Y-11262644D02*
X2971164Y-11300740D01*
X2971164Y-11300740D02*
X2961640Y-11319787D01*
X2961640Y-11319787D02*
X2942592Y-11338835D01*
X2942592Y-11338835D02*
X2914021Y-11348359D01*
X2914021Y-11348359D02*
X2866402Y-11348359D01*
X3066402Y-11348359D02*
X3066402Y-11215025D01*
X3066402Y-11253121D02*
X3075926Y-11234073D01*
X3075926Y-11234073D02*
X3085449Y-11224549D01*
X3085449Y-11224549D02*
X3104497Y-11215025D01*
X3104497Y-11215025D02*
X3123545Y-11215025D01*
X3190211Y-11348359D02*
X3190211Y-11215025D01*
X3190211Y-11148359D02*
X3180687Y-11157883D01*
X3180687Y-11157883D02*
X3190211Y-11167406D01*
X3190211Y-11167406D02*
X3199735Y-11157883D01*
X3199735Y-11157883D02*
X3190211Y-11148359D01*
X3190211Y-11148359D02*
X3190211Y-11167406D01*
X3314021Y-11348359D02*
X3294973Y-11338835D01*
X3294973Y-11338835D02*
X3285449Y-11319787D01*
X3285449Y-11319787D02*
X3285449Y-11148359D01*
X3418783Y-11348359D02*
X3399735Y-11338835D01*
X3399735Y-11338835D02*
X3390211Y-11319787D01*
X3390211Y-11319787D02*
X3390211Y-11148359D01*
X3647354Y-11348359D02*
X3647354Y-11148359D01*
X3647354Y-11148359D02*
X3714021Y-11291216D01*
X3714021Y-11291216D02*
X3780687Y-11148359D01*
X3780687Y-11148359D02*
X3780687Y-11348359D01*
X3961640Y-11348359D02*
X3961640Y-11243597D01*
X3961640Y-11243597D02*
X3952116Y-11224549D01*
X3952116Y-11224549D02*
X3933068Y-11215025D01*
X3933068Y-11215025D02*
X3894973Y-11215025D01*
X3894973Y-11215025D02*
X3875926Y-11224549D01*
X3961640Y-11338835D02*
X3942592Y-11348359D01*
X3942592Y-11348359D02*
X3894973Y-11348359D01*
X3894973Y-11348359D02*
X3875926Y-11338835D01*
X3875926Y-11338835D02*
X3866402Y-11319787D01*
X3866402Y-11319787D02*
X3866402Y-11300740D01*
X3866402Y-11300740D02*
X3875926Y-11281692D01*
X3875926Y-11281692D02*
X3894973Y-11272168D01*
X3894973Y-11272168D02*
X3942592Y-11272168D01*
X3942592Y-11272168D02*
X3961640Y-11262644D01*
X4056878Y-11215025D02*
X4056878Y-11415025D01*
X4056878Y-11224549D02*
X4075926Y-11215025D01*
X4075926Y-11215025D02*
X4114021Y-11215025D01*
X4114021Y-11215025D02*
X4133068Y-11224549D01*
X4133068Y-11224549D02*
X4142592Y-11234073D01*
X4142592Y-11234073D02*
X4152116Y-11253121D01*
X4152116Y-11253121D02*
X4152116Y-11310263D01*
X4152116Y-11310263D02*
X4142592Y-11329311D01*
X4142592Y-11329311D02*
X4133068Y-11338835D01*
X4133068Y-11338835D02*
X4114021Y-11348359D01*
X4114021Y-11348359D02*
X4075926Y-11348359D01*
X4075926Y-11348359D02*
X4056878Y-11338835D01*
X4237830Y-11329311D02*
X4247354Y-11338835D01*
X4247354Y-11338835D02*
X4237830Y-11348359D01*
X4237830Y-11348359D02*
X4228307Y-11338835D01*
X4228307Y-11338835D02*
X4237830Y-11329311D01*
X4237830Y-11329311D02*
X4237830Y-11348359D01*
X4237830Y-11224549D02*
X4247354Y-11234073D01*
X4247354Y-11234073D02*
X4237830Y-11243597D01*
X4237830Y-11243597D02*
X4228307Y-11234073D01*
X4228307Y-11234073D02*
X4237830Y-11224549D01*
X4237830Y-11224549D02*
X4237830Y-11243597D01*
M02*
